M48
; DRILL file {KiCad 8.0.7} date 2025-02-08T18:07:00-0500
; FORMAT={-:-/ absolute / inch / decimal}
; #@! TF.CreationDate,2025-02-08T18:07:00-05:00
; #@! TF.GenerationSoftware,Kicad,Pcbnew,8.0.7
; #@! TF.FileFunction,Plated,1,4,PTH
FMAT,2
INCH
; #@! TA.AperFunction,Plated,PTH,ViaDrill
T1C0.0118
; #@! TA.AperFunction,Plated,PTH,ComponentDrill
T2C0.0394
; #@! TA.AperFunction,Plated,PTH,ComponentDrill
T3C0.0400
%
G90
G05
T1
X3.9862Y-3.8583
X3.9882Y-3.7008
X3.9902Y-3.3937
X4.1053Y-2.7628
X4.1063Y-3.1663
X4.1339Y-2.8563
X4.1339Y-3.0728
X4.253Y-4.188
X4.2963Y-4.188
X4.2992Y-2.8287
X4.3346Y-3.0433
X4.3346Y-3.2028
X4.3386Y-4.3843
X4.4016Y-3.063
X4.4567Y-3.0039
X4.4567Y-3.0433
X4.4637Y-4.1781
X4.472Y-4.3843
X4.5138Y-2.8189
X4.5472Y-2.9154
X4.5486Y-4.3242
X4.5512Y-3.3937
X4.6654Y-2.889
X4.678Y-2.7283
X4.6969Y-2.9035
X4.7323Y-2.9035
X4.7471Y-3.0551
X4.7638Y-3.561
X4.7677Y-2.8142
X4.7756Y-2.9449
X4.7953Y-2.9142
X4.8701Y-3.126
X4.9843Y-4.5925
X5.0489Y-2.7838
X5.0591Y-4.5886
X5.065Y-3.5827
X5.1142Y-2.9499
X5.1299Y-4.5886
X5.1385Y-4.6286
X5.1732Y-3.1775
X5.1772Y-3.085
X5.2008Y-3.3051
X5.2126Y-2.9035
X5.2165Y-3.0492
X5.2402Y-3.1988
X5.2461Y-3.3976
X5.2756Y-2.6378
X5.2916Y-3.1873
X5.3209Y-3.1535
X5.3209Y-3.3268
X5.3327Y-2.9646
X5.3346Y-2.7874
X5.3346Y-2.8268
X5.3392Y-2.662
X5.3504Y-2.9055
X5.3583Y-2.7618
X5.3583Y-2.9941
X5.3602Y-2.8465
X5.378Y-2.7874
X5.378Y-2.9685
X5.3937Y-3.2933
X5.3976Y-2.7618
X5.3976Y-2.9055
X5.3976Y-2.9947
X5.4173Y-2.9685
X5.4278Y-3.1535
X5.4278Y-3.4331
X5.437Y-2.7618
X5.437Y-2.9321
X5.437Y-2.9947
X5.4505Y-2.6378
X5.4528Y-3.2461
X5.4528Y-3.3386
X5.4567Y-2.7874
X5.4764Y-2.7618
X5.4778Y-3.4331
X5.4961Y-2.7874
X5.5118Y-3.2933
X5.5157Y-2.7618
X5.5354Y-2.7874
X5.5354Y-2.9449
X5.5354Y-2.9921
X5.5447Y-2.6378
X5.5563Y-3.1398
X5.561Y-2.8071
X5.561Y-2.9055
X5.561Y-2.9646
X5.5846Y-2.6378
X5.6129Y-3.0177
X5.6201Y-4.6004
X5.6535Y-4.6339
X5.6644Y-2.6407
X5.6746Y-2.9258
X5.6752Y-2.8465
X5.6752Y-2.885
X5.7008Y-2.8268
X5.7008Y-2.8661
X5.747Y-2.7018
X5.9429Y-3.9331
X5.9429Y-3.998
X5.9429Y-4.0571
X5.9429Y-4.126
X5.9961Y-4.6713
X6.0374Y-4.0039
X6.0374Y-4.0531
X6.061Y-3.8976
X6.061Y-3.9646
X6.0728Y-4.0906
X6.126Y-4.0591
X6.189Y-3.1398
X6.2185Y-2.876
X6.2264Y-3.9134
X6.2392Y-3.0128
X6.2421Y-2.8415
X6.2441Y-2.9035
X6.2524Y-3.2831
X6.2992Y-3.1024
X6.3878Y-3.4094
X6.3878Y-3.4409
X6.5315Y-4.0394
X6.6083Y-4.4665
X6.6358Y-4.6772
X6.6555Y-4.0157
X6.6929Y-4.0157
X6.7283Y-3.5945
X6.7657Y-4.6772
X6.7677Y-4.3661
X6.878Y-3.4626
X6.8799Y-3.4154
X6.8898Y-3.2736
X6.8898Y-3.3189
T2
X4.1417Y-4.1146
X4.1417Y-4.2146
X4.1417Y-4.3146
X4.1417Y-4.4146
X4.1417Y-4.5146
X4.1417Y-4.6146
X4.4872Y-3.7041
X4.4872Y-3.8041
X4.5872Y-3.7041
X4.5872Y-3.8041
X4.6142Y-3.4882
X4.6516Y-4.1134
X4.6516Y-4.2134
X4.6516Y-4.3134
X4.6516Y-4.4134
X4.6516Y-4.5134
X4.6516Y-4.6134
X4.6872Y-3.7041
X4.6872Y-3.8041
X4.7872Y-3.7041
X4.7872Y-3.8041
X4.8799Y-3.4882
X4.8872Y-3.7041
X4.8872Y-3.8041
X4.9872Y-3.7041
X4.9872Y-3.8041
X5.0872Y-3.7041
X5.0872Y-3.8041
X5.1872Y-3.7041
X5.1872Y-3.8041
X5.2872Y-3.7041
X5.2872Y-3.8041
X5.3228Y-4.2142
X5.3228Y-4.3142
X5.3228Y-4.4142
X5.3228Y-4.5142
X5.3228Y-4.6142
X5.3872Y-3.7041
X5.3872Y-3.8041
X5.4872Y-3.7041
X5.4872Y-3.8041
X5.5872Y-3.7041
X5.5872Y-3.8041
X5.6872Y-3.7041
X5.6872Y-3.8041
X5.7106Y-4.0079
X5.7872Y-3.7041
X5.7872Y-3.8041
X5.8872Y-3.7041
X5.8872Y-3.8041
X5.9764Y-2.6878
X5.9764Y-2.7878
X5.9764Y-2.8878
X5.9764Y-2.9878
X5.9764Y-3.0878
X5.9764Y-3.1878
X5.9764Y-3.2878
X5.9764Y-3.3878
X5.9872Y-3.7041
X5.9872Y-3.8041
X6.0872Y-3.7041
X6.0872Y-3.8041
X6.1872Y-3.7041
X6.1872Y-3.8041
X6.2872Y-3.7041
X6.2872Y-3.8041
X6.3872Y-3.7041
X6.3872Y-3.8041
X6.878Y-3.8339
X6.878Y-3.9339
X6.878Y-4.0339
X6.878Y-4.1339
X6.878Y-4.2339
X6.878Y-4.3339
X6.878Y-4.4339
X6.878Y-4.5339
X6.878Y-4.6339
T3
X4.5051Y-2.6437
X4.6051Y-2.6437
M30
