%TF.GenerationSoftware,KiCad,Pcbnew,8.0.7*%
%TF.CreationDate,2025-02-08T18:07:02-05:00*%
%TF.ProjectId,Fallyx_EVK-RevA,46616c6c-7978-45f4-9556-4b2d52657641,rev?*%
%TF.SameCoordinates,Original*%
%TF.FileFunction,Paste,Top*%
%TF.FilePolarity,Positive*%
%FSLAX46Y46*%
G04 Gerber Fmt 4.6, Leading zero omitted, Abs format (unit mm)*
G04 Created by KiCad (PCBNEW 8.0.7) date 2025-02-08 18:07:02*
%MOMM*%
%LPD*%
G01*
G04 APERTURE LIST*
G04 Aperture macros list*
%AMRoundRect*
0 Rectangle with rounded corners*
0 $1 Rounding radius*
0 $2 $3 $4 $5 $6 $7 $8 $9 X,Y pos of 4 corners*
0 Add a 4 corners polygon primitive as box body*
4,1,4,$2,$3,$4,$5,$6,$7,$8,$9,$2,$3,0*
0 Add four circle primitives for the rounded corners*
1,1,$1+$1,$2,$3*
1,1,$1+$1,$4,$5*
1,1,$1+$1,$6,$7*
1,1,$1+$1,$8,$9*
0 Add four rect primitives between the rounded corners*
20,1,$1+$1,$2,$3,$4,$5,0*
20,1,$1+$1,$4,$5,$6,$7,0*
20,1,$1+$1,$6,$7,$8,$9,0*
20,1,$1+$1,$8,$9,$2,$3,0*%
%AMRotRect*
0 Rectangle, with rotation*
0 The origin of the aperture is its center*
0 $1 length*
0 $2 width*
0 $3 Rotation angle, in degrees counterclockwise*
0 Add horizontal line*
21,1,$1,$2,0,0,$3*%
G04 Aperture macros list end*
%ADD10C,0.010000*%
%ADD11R,0.450000X0.350000*%
%ADD12R,0.450000X0.250000*%
%ADD13R,1.000000X1.600000*%
%ADD14R,0.900000X0.100000*%
%ADD15RoundRect,0.147500X0.172500X-0.147500X0.172500X0.147500X-0.172500X0.147500X-0.172500X-0.147500X0*%
%ADD16R,0.711200X1.498600*%
%ADD17R,1.498600X0.711200*%
%ADD18R,1.500000X0.700000*%
%ADD19R,0.700000X1.500000*%
%ADD20RoundRect,0.135000X0.135000X0.185000X-0.135000X0.185000X-0.135000X-0.185000X0.135000X-0.185000X0*%
%ADD21RoundRect,0.135000X-0.135000X-0.185000X0.135000X-0.185000X0.135000X0.185000X-0.135000X0.185000X0*%
%ADD22RoundRect,0.135000X-0.185000X0.135000X-0.185000X-0.135000X0.185000X-0.135000X0.185000X0.135000X0*%
%ADD23R,2.692400X0.800100*%
%ADD24R,0.200000X0.350000*%
%ADD25RoundRect,0.250000X0.475000X-0.250000X0.475000X0.250000X-0.475000X0.250000X-0.475000X-0.250000X0*%
%ADD26RoundRect,0.225000X0.225000X0.250000X-0.225000X0.250000X-0.225000X-0.250000X0.225000X-0.250000X0*%
%ADD27RoundRect,0.225000X0.250000X-0.225000X0.250000X0.225000X-0.250000X0.225000X-0.250000X-0.225000X0*%
%ADD28RoundRect,0.140000X-0.140000X-0.170000X0.140000X-0.170000X0.140000X0.170000X-0.140000X0.170000X0*%
%ADD29RoundRect,0.225000X-0.225000X-0.250000X0.225000X-0.250000X0.225000X0.250000X-0.225000X0.250000X0*%
%ADD30RoundRect,0.225000X-0.250000X0.225000X-0.250000X-0.225000X0.250000X-0.225000X0.250000X0.225000X0*%
%ADD31RoundRect,0.112500X-0.112500X-0.237500X0.112500X-0.237500X0.112500X0.237500X-0.112500X0.237500X0*%
%ADD32RoundRect,0.150000X0.150000X-0.587500X0.150000X0.587500X-0.150000X0.587500X-0.150000X-0.587500X0*%
%ADD33RoundRect,0.140000X-0.170000X0.140000X-0.170000X-0.140000X0.170000X-0.140000X0.170000X0.140000X0*%
%ADD34RoundRect,0.140000X0.170000X-0.140000X0.170000X0.140000X-0.170000X0.140000X-0.170000X-0.140000X0*%
%ADD35RoundRect,0.250000X-0.450000X0.262500X-0.450000X-0.262500X0.450000X-0.262500X0.450000X0.262500X0*%
%ADD36RoundRect,0.140000X0.140000X0.170000X-0.140000X0.170000X-0.140000X-0.170000X0.140000X-0.170000X0*%
%ADD37R,0.330200X0.304800*%
%ADD38R,0.304800X0.330200*%
%ADD39RoundRect,0.218750X0.218750X0.256250X-0.218750X0.256250X-0.218750X-0.256250X0.218750X-0.256250X0*%
%ADD40R,0.790000X0.270000*%
%ADD41RoundRect,0.135000X0.185000X-0.135000X0.185000X0.135000X-0.185000X0.135000X-0.185000X-0.135000X0*%
%ADD42RoundRect,0.250000X0.555000X-0.435000X0.555000X0.435000X-0.555000X0.435000X-0.555000X-0.435000X0*%
%ADD43RoundRect,0.125000X0.125000X-0.262500X0.125000X0.262500X-0.125000X0.262500X-0.125000X-0.262500X0*%
%ADD44R,1.473200X0.279400*%
%ADD45R,0.279400X1.473200*%
%ADD46RoundRect,0.175000X-0.425000X0.175000X-0.425000X-0.175000X0.425000X-0.175000X0.425000X0.175000X0*%
%ADD47RoundRect,0.190000X0.410000X-0.190000X0.410000X0.190000X-0.410000X0.190000X-0.410000X-0.190000X0*%
%ADD48RoundRect,0.200000X0.400000X-0.200000X0.400000X0.200000X-0.400000X0.200000X-0.400000X-0.200000X0*%
%ADD49RoundRect,0.175000X0.425000X-0.175000X0.425000X0.175000X-0.425000X0.175000X-0.425000X-0.175000X0*%
%ADD50RoundRect,0.190000X-0.410000X0.190000X-0.410000X-0.190000X0.410000X-0.190000X0.410000X0.190000X0*%
%ADD51RoundRect,0.200000X-0.400000X0.200000X-0.400000X-0.200000X0.400000X-0.200000X0.400000X0.200000X0*%
%ADD52RoundRect,0.250000X-0.425000X0.650000X-0.425000X-0.650000X0.425000X-0.650000X0.425000X0.650000X0*%
%ADD53RoundRect,0.250000X-0.500000X0.650000X-0.500000X-0.650000X0.500000X-0.650000X0.500000X0.650000X0*%
%ADD54R,1.200000X0.600000*%
%ADD55RoundRect,0.250000X-0.475000X0.250000X-0.475000X-0.250000X0.475000X-0.250000X0.475000X0.250000X0*%
%ADD56R,1.400000X2.100000*%
%ADD57R,0.475000X0.250000*%
%ADD58R,0.250000X0.475000*%
%ADD59R,0.800100X2.692400*%
%ADD60R,0.400000X0.400000*%
%ADD61R,0.400000X0.300000*%
%ADD62R,1.270000X0.558800*%
%ADD63RotRect,0.850000X0.750000X135.000000*%
G04 APERTURE END LIST*
D10*
%TO.C,J9*%
X158200000Y-102350000D02*
X157300000Y-102350000D01*
X157300000Y-100350000D01*
X158200000Y-100350000D01*
X158200000Y-102350000D01*
G36*
X158200000Y-102350000D02*
G01*
X157300000Y-102350000D01*
X157300000Y-100350000D01*
X158200000Y-100350000D01*
X158200000Y-102350000D01*
G37*
X155200000Y-102350000D02*
X154300000Y-102350000D01*
X154300000Y-100350000D01*
X155200000Y-100350000D01*
X155200000Y-102350000D01*
G36*
X155200000Y-102350000D02*
G01*
X154300000Y-102350000D01*
X154300000Y-100350000D01*
X155200000Y-100350000D01*
X155200000Y-102350000D01*
G37*
X156650000Y-100250000D02*
X155850000Y-100250000D01*
X155850000Y-99400000D01*
X156650000Y-99400000D01*
X156650000Y-100250000D01*
G36*
X156650000Y-100250000D02*
G01*
X155850000Y-100250000D01*
X155850000Y-99400000D01*
X156650000Y-99400000D01*
X156650000Y-100250000D01*
G37*
%TO.C,U7*%
X119783000Y-71756000D02*
X119785000Y-71756000D01*
X119788000Y-71757000D01*
X119790000Y-71757000D01*
X119793000Y-71758000D01*
X119795000Y-71759000D01*
X119798000Y-71760000D01*
X119800000Y-71762000D01*
X119802000Y-71763000D01*
X119804000Y-71765000D01*
X119806000Y-71766000D01*
X119808000Y-71768000D01*
X119810000Y-71770000D01*
X119812000Y-71772000D01*
X119814000Y-71774000D01*
X119815000Y-71776000D01*
X119817000Y-71778000D01*
X119818000Y-71780000D01*
X119820000Y-71782000D01*
X119821000Y-71785000D01*
X119822000Y-71787000D01*
X119823000Y-71790000D01*
X119823000Y-71792000D01*
X119824000Y-71795000D01*
X119824000Y-71797000D01*
X119825000Y-71800000D01*
X119825000Y-71802000D01*
X119825000Y-71805000D01*
X119825000Y-71880000D01*
X119825000Y-71955000D01*
X119825000Y-71958000D01*
X119825000Y-71960000D01*
X119824000Y-71963000D01*
X119824000Y-71965000D01*
X119823000Y-71968000D01*
X119823000Y-71970000D01*
X119822000Y-71973000D01*
X119821000Y-71975000D01*
X119820000Y-71978000D01*
X119818000Y-71980000D01*
X119817000Y-71982000D01*
X119815000Y-71984000D01*
X119814000Y-71986000D01*
X119812000Y-71988000D01*
X119810000Y-71990000D01*
X119808000Y-71992000D01*
X119806000Y-71994000D01*
X119804000Y-71995000D01*
X119802000Y-71997000D01*
X119800000Y-71998000D01*
X119798000Y-72000000D01*
X119795000Y-72001000D01*
X119793000Y-72002000D01*
X119790000Y-72003000D01*
X119788000Y-72003000D01*
X119785000Y-72004000D01*
X119783000Y-72004000D01*
X119780000Y-72005000D01*
X119778000Y-72005000D01*
X119775000Y-72005000D01*
X119625000Y-72005000D01*
X119622000Y-72005000D01*
X119620000Y-72005000D01*
X119617000Y-72004000D01*
X119615000Y-72004000D01*
X119612000Y-72003000D01*
X119610000Y-72003000D01*
X119607000Y-72002000D01*
X119605000Y-72001000D01*
X119602000Y-72000000D01*
X119600000Y-71998000D01*
X119598000Y-71997000D01*
X119596000Y-71995000D01*
X119594000Y-71994000D01*
X119592000Y-71992000D01*
X119590000Y-71990000D01*
X119588000Y-71988000D01*
X119586000Y-71986000D01*
X119585000Y-71984000D01*
X119583000Y-71982000D01*
X119582000Y-71980000D01*
X119580000Y-71978000D01*
X119579000Y-71975000D01*
X119578000Y-71973000D01*
X119577000Y-71970000D01*
X119577000Y-71968000D01*
X119576000Y-71965000D01*
X119576000Y-71963000D01*
X119575000Y-71960000D01*
X119575000Y-71958000D01*
X119575000Y-71955000D01*
X119575000Y-71805000D01*
X119575000Y-71802000D01*
X119575000Y-71800000D01*
X119576000Y-71797000D01*
X119576000Y-71795000D01*
X119577000Y-71792000D01*
X119577000Y-71790000D01*
X119578000Y-71787000D01*
X119579000Y-71785000D01*
X119580000Y-71782000D01*
X119582000Y-71780000D01*
X119583000Y-71778000D01*
X119585000Y-71776000D01*
X119586000Y-71774000D01*
X119588000Y-71772000D01*
X119590000Y-71770000D01*
X119592000Y-71768000D01*
X119594000Y-71766000D01*
X119596000Y-71765000D01*
X119598000Y-71763000D01*
X119600000Y-71762000D01*
X119602000Y-71760000D01*
X119605000Y-71759000D01*
X119607000Y-71758000D01*
X119610000Y-71757000D01*
X119612000Y-71757000D01*
X119615000Y-71756000D01*
X119617000Y-71756000D01*
X119620000Y-71755000D01*
X119622000Y-71755000D01*
X119625000Y-71755000D01*
X119775000Y-71755000D01*
X119778000Y-71755000D01*
X119780000Y-71755000D01*
X119783000Y-71756000D01*
G36*
X119783000Y-71756000D02*
G01*
X119785000Y-71756000D01*
X119788000Y-71757000D01*
X119790000Y-71757000D01*
X119793000Y-71758000D01*
X119795000Y-71759000D01*
X119798000Y-71760000D01*
X119800000Y-71762000D01*
X119802000Y-71763000D01*
X119804000Y-71765000D01*
X119806000Y-71766000D01*
X119808000Y-71768000D01*
X119810000Y-71770000D01*
X119812000Y-71772000D01*
X119814000Y-71774000D01*
X119815000Y-71776000D01*
X119817000Y-71778000D01*
X119818000Y-71780000D01*
X119820000Y-71782000D01*
X119821000Y-71785000D01*
X119822000Y-71787000D01*
X119823000Y-71790000D01*
X119823000Y-71792000D01*
X119824000Y-71795000D01*
X119824000Y-71797000D01*
X119825000Y-71800000D01*
X119825000Y-71802000D01*
X119825000Y-71805000D01*
X119825000Y-71880000D01*
X119825000Y-71955000D01*
X119825000Y-71958000D01*
X119825000Y-71960000D01*
X119824000Y-71963000D01*
X119824000Y-71965000D01*
X119823000Y-71968000D01*
X119823000Y-71970000D01*
X119822000Y-71973000D01*
X119821000Y-71975000D01*
X119820000Y-71978000D01*
X119818000Y-71980000D01*
X119817000Y-71982000D01*
X119815000Y-71984000D01*
X119814000Y-71986000D01*
X119812000Y-71988000D01*
X119810000Y-71990000D01*
X119808000Y-71992000D01*
X119806000Y-71994000D01*
X119804000Y-71995000D01*
X119802000Y-71997000D01*
X119800000Y-71998000D01*
X119798000Y-72000000D01*
X119795000Y-72001000D01*
X119793000Y-72002000D01*
X119790000Y-72003000D01*
X119788000Y-72003000D01*
X119785000Y-72004000D01*
X119783000Y-72004000D01*
X119780000Y-72005000D01*
X119778000Y-72005000D01*
X119775000Y-72005000D01*
X119625000Y-72005000D01*
X119622000Y-72005000D01*
X119620000Y-72005000D01*
X119617000Y-72004000D01*
X119615000Y-72004000D01*
X119612000Y-72003000D01*
X119610000Y-72003000D01*
X119607000Y-72002000D01*
X119605000Y-72001000D01*
X119602000Y-72000000D01*
X119600000Y-71998000D01*
X119598000Y-71997000D01*
X119596000Y-71995000D01*
X119594000Y-71994000D01*
X119592000Y-71992000D01*
X119590000Y-71990000D01*
X119588000Y-71988000D01*
X119586000Y-71986000D01*
X119585000Y-71984000D01*
X119583000Y-71982000D01*
X119582000Y-71980000D01*
X119580000Y-71978000D01*
X119579000Y-71975000D01*
X119578000Y-71973000D01*
X119577000Y-71970000D01*
X119577000Y-71968000D01*
X119576000Y-71965000D01*
X119576000Y-71963000D01*
X119575000Y-71960000D01*
X119575000Y-71958000D01*
X119575000Y-71955000D01*
X119575000Y-71805000D01*
X119575000Y-71802000D01*
X119575000Y-71800000D01*
X119576000Y-71797000D01*
X119576000Y-71795000D01*
X119577000Y-71792000D01*
X119577000Y-71790000D01*
X119578000Y-71787000D01*
X119579000Y-71785000D01*
X119580000Y-71782000D01*
X119582000Y-71780000D01*
X119583000Y-71778000D01*
X119585000Y-71776000D01*
X119586000Y-71774000D01*
X119588000Y-71772000D01*
X119590000Y-71770000D01*
X119592000Y-71768000D01*
X119594000Y-71766000D01*
X119596000Y-71765000D01*
X119598000Y-71763000D01*
X119600000Y-71762000D01*
X119602000Y-71760000D01*
X119605000Y-71759000D01*
X119607000Y-71758000D01*
X119610000Y-71757000D01*
X119612000Y-71757000D01*
X119615000Y-71756000D01*
X119617000Y-71756000D01*
X119620000Y-71755000D01*
X119622000Y-71755000D01*
X119625000Y-71755000D01*
X119775000Y-71755000D01*
X119778000Y-71755000D01*
X119780000Y-71755000D01*
X119783000Y-71756000D01*
G37*
X119783000Y-72256000D02*
X119785000Y-72256000D01*
X119788000Y-72257000D01*
X119790000Y-72257000D01*
X119793000Y-72258000D01*
X119795000Y-72259000D01*
X119798000Y-72260000D01*
X119800000Y-72262000D01*
X119802000Y-72263000D01*
X119804000Y-72265000D01*
X119806000Y-72266000D01*
X119808000Y-72268000D01*
X119810000Y-72270000D01*
X119812000Y-72272000D01*
X119814000Y-72274000D01*
X119815000Y-72276000D01*
X119817000Y-72278000D01*
X119818000Y-72280000D01*
X119820000Y-72282000D01*
X119821000Y-72285000D01*
X119822000Y-72287000D01*
X119823000Y-72290000D01*
X119823000Y-72292000D01*
X119824000Y-72295000D01*
X119824000Y-72297000D01*
X119825000Y-72300000D01*
X119825000Y-72302000D01*
X119825000Y-72305000D01*
X119825000Y-72380000D01*
X119825000Y-72455000D01*
X119825000Y-72458000D01*
X119825000Y-72460000D01*
X119824000Y-72463000D01*
X119824000Y-72465000D01*
X119823000Y-72468000D01*
X119823000Y-72470000D01*
X119822000Y-72473000D01*
X119821000Y-72475000D01*
X119820000Y-72478000D01*
X119818000Y-72480000D01*
X119817000Y-72482000D01*
X119815000Y-72484000D01*
X119814000Y-72486000D01*
X119812000Y-72488000D01*
X119810000Y-72490000D01*
X119808000Y-72492000D01*
X119806000Y-72494000D01*
X119804000Y-72495000D01*
X119802000Y-72497000D01*
X119800000Y-72498000D01*
X119798000Y-72500000D01*
X119795000Y-72501000D01*
X119793000Y-72502000D01*
X119790000Y-72503000D01*
X119788000Y-72503000D01*
X119785000Y-72504000D01*
X119783000Y-72504000D01*
X119780000Y-72505000D01*
X119778000Y-72505000D01*
X119775000Y-72505000D01*
X119625000Y-72505000D01*
X119622000Y-72505000D01*
X119620000Y-72505000D01*
X119617000Y-72504000D01*
X119615000Y-72504000D01*
X119612000Y-72503000D01*
X119610000Y-72503000D01*
X119607000Y-72502000D01*
X119605000Y-72501000D01*
X119602000Y-72500000D01*
X119600000Y-72498000D01*
X119598000Y-72497000D01*
X119596000Y-72495000D01*
X119594000Y-72494000D01*
X119592000Y-72492000D01*
X119590000Y-72490000D01*
X119588000Y-72488000D01*
X119586000Y-72486000D01*
X119585000Y-72484000D01*
X119583000Y-72482000D01*
X119582000Y-72480000D01*
X119580000Y-72478000D01*
X119579000Y-72475000D01*
X119578000Y-72473000D01*
X119577000Y-72470000D01*
X119577000Y-72468000D01*
X119576000Y-72465000D01*
X119576000Y-72463000D01*
X119575000Y-72460000D01*
X119575000Y-72458000D01*
X119575000Y-72455000D01*
X119575000Y-72305000D01*
X119575000Y-72302000D01*
X119575000Y-72300000D01*
X119576000Y-72297000D01*
X119576000Y-72295000D01*
X119577000Y-72292000D01*
X119577000Y-72290000D01*
X119578000Y-72287000D01*
X119579000Y-72285000D01*
X119580000Y-72282000D01*
X119582000Y-72280000D01*
X119583000Y-72278000D01*
X119585000Y-72276000D01*
X119586000Y-72274000D01*
X119588000Y-72272000D01*
X119590000Y-72270000D01*
X119592000Y-72268000D01*
X119594000Y-72266000D01*
X119596000Y-72265000D01*
X119598000Y-72263000D01*
X119600000Y-72262000D01*
X119602000Y-72260000D01*
X119605000Y-72259000D01*
X119607000Y-72258000D01*
X119610000Y-72257000D01*
X119612000Y-72257000D01*
X119615000Y-72256000D01*
X119617000Y-72256000D01*
X119620000Y-72255000D01*
X119622000Y-72255000D01*
X119625000Y-72255000D01*
X119775000Y-72255000D01*
X119778000Y-72255000D01*
X119780000Y-72255000D01*
X119783000Y-72256000D01*
G36*
X119783000Y-72256000D02*
G01*
X119785000Y-72256000D01*
X119788000Y-72257000D01*
X119790000Y-72257000D01*
X119793000Y-72258000D01*
X119795000Y-72259000D01*
X119798000Y-72260000D01*
X119800000Y-72262000D01*
X119802000Y-72263000D01*
X119804000Y-72265000D01*
X119806000Y-72266000D01*
X119808000Y-72268000D01*
X119810000Y-72270000D01*
X119812000Y-72272000D01*
X119814000Y-72274000D01*
X119815000Y-72276000D01*
X119817000Y-72278000D01*
X119818000Y-72280000D01*
X119820000Y-72282000D01*
X119821000Y-72285000D01*
X119822000Y-72287000D01*
X119823000Y-72290000D01*
X119823000Y-72292000D01*
X119824000Y-72295000D01*
X119824000Y-72297000D01*
X119825000Y-72300000D01*
X119825000Y-72302000D01*
X119825000Y-72305000D01*
X119825000Y-72380000D01*
X119825000Y-72455000D01*
X119825000Y-72458000D01*
X119825000Y-72460000D01*
X119824000Y-72463000D01*
X119824000Y-72465000D01*
X119823000Y-72468000D01*
X119823000Y-72470000D01*
X119822000Y-72473000D01*
X119821000Y-72475000D01*
X119820000Y-72478000D01*
X119818000Y-72480000D01*
X119817000Y-72482000D01*
X119815000Y-72484000D01*
X119814000Y-72486000D01*
X119812000Y-72488000D01*
X119810000Y-72490000D01*
X119808000Y-72492000D01*
X119806000Y-72494000D01*
X119804000Y-72495000D01*
X119802000Y-72497000D01*
X119800000Y-72498000D01*
X119798000Y-72500000D01*
X119795000Y-72501000D01*
X119793000Y-72502000D01*
X119790000Y-72503000D01*
X119788000Y-72503000D01*
X119785000Y-72504000D01*
X119783000Y-72504000D01*
X119780000Y-72505000D01*
X119778000Y-72505000D01*
X119775000Y-72505000D01*
X119625000Y-72505000D01*
X119622000Y-72505000D01*
X119620000Y-72505000D01*
X119617000Y-72504000D01*
X119615000Y-72504000D01*
X119612000Y-72503000D01*
X119610000Y-72503000D01*
X119607000Y-72502000D01*
X119605000Y-72501000D01*
X119602000Y-72500000D01*
X119600000Y-72498000D01*
X119598000Y-72497000D01*
X119596000Y-72495000D01*
X119594000Y-72494000D01*
X119592000Y-72492000D01*
X119590000Y-72490000D01*
X119588000Y-72488000D01*
X119586000Y-72486000D01*
X119585000Y-72484000D01*
X119583000Y-72482000D01*
X119582000Y-72480000D01*
X119580000Y-72478000D01*
X119579000Y-72475000D01*
X119578000Y-72473000D01*
X119577000Y-72470000D01*
X119577000Y-72468000D01*
X119576000Y-72465000D01*
X119576000Y-72463000D01*
X119575000Y-72460000D01*
X119575000Y-72458000D01*
X119575000Y-72455000D01*
X119575000Y-72305000D01*
X119575000Y-72302000D01*
X119575000Y-72300000D01*
X119576000Y-72297000D01*
X119576000Y-72295000D01*
X119577000Y-72292000D01*
X119577000Y-72290000D01*
X119578000Y-72287000D01*
X119579000Y-72285000D01*
X119580000Y-72282000D01*
X119582000Y-72280000D01*
X119583000Y-72278000D01*
X119585000Y-72276000D01*
X119586000Y-72274000D01*
X119588000Y-72272000D01*
X119590000Y-72270000D01*
X119592000Y-72268000D01*
X119594000Y-72266000D01*
X119596000Y-72265000D01*
X119598000Y-72263000D01*
X119600000Y-72262000D01*
X119602000Y-72260000D01*
X119605000Y-72259000D01*
X119607000Y-72258000D01*
X119610000Y-72257000D01*
X119612000Y-72257000D01*
X119615000Y-72256000D01*
X119617000Y-72256000D01*
X119620000Y-72255000D01*
X119622000Y-72255000D01*
X119625000Y-72255000D01*
X119775000Y-72255000D01*
X119778000Y-72255000D01*
X119780000Y-72255000D01*
X119783000Y-72256000D01*
G37*
X119783000Y-72756000D02*
X119785000Y-72756000D01*
X119788000Y-72757000D01*
X119790000Y-72757000D01*
X119793000Y-72758000D01*
X119795000Y-72759000D01*
X119798000Y-72760000D01*
X119800000Y-72762000D01*
X119802000Y-72763000D01*
X119804000Y-72765000D01*
X119806000Y-72766000D01*
X119808000Y-72768000D01*
X119810000Y-72770000D01*
X119812000Y-72772000D01*
X119814000Y-72774000D01*
X119815000Y-72776000D01*
X119817000Y-72778000D01*
X119818000Y-72780000D01*
X119820000Y-72782000D01*
X119821000Y-72785000D01*
X119822000Y-72787000D01*
X119823000Y-72790000D01*
X119823000Y-72792000D01*
X119824000Y-72795000D01*
X119824000Y-72797000D01*
X119825000Y-72800000D01*
X119825000Y-72802000D01*
X119825000Y-72805000D01*
X119825000Y-72880000D01*
X119825000Y-72955000D01*
X119825000Y-72958000D01*
X119825000Y-72960000D01*
X119824000Y-72963000D01*
X119824000Y-72965000D01*
X119823000Y-72968000D01*
X119823000Y-72970000D01*
X119822000Y-72973000D01*
X119821000Y-72975000D01*
X119820000Y-72978000D01*
X119818000Y-72980000D01*
X119817000Y-72982000D01*
X119815000Y-72984000D01*
X119814000Y-72986000D01*
X119812000Y-72988000D01*
X119810000Y-72990000D01*
X119808000Y-72992000D01*
X119806000Y-72994000D01*
X119804000Y-72995000D01*
X119802000Y-72997000D01*
X119800000Y-72998000D01*
X119798000Y-73000000D01*
X119795000Y-73001000D01*
X119793000Y-73002000D01*
X119790000Y-73003000D01*
X119788000Y-73003000D01*
X119785000Y-73004000D01*
X119783000Y-73004000D01*
X119780000Y-73005000D01*
X119778000Y-73005000D01*
X119775000Y-73005000D01*
X119625000Y-73005000D01*
X119622000Y-73005000D01*
X119620000Y-73005000D01*
X119617000Y-73004000D01*
X119615000Y-73004000D01*
X119612000Y-73003000D01*
X119610000Y-73003000D01*
X119607000Y-73002000D01*
X119605000Y-73001000D01*
X119602000Y-73000000D01*
X119600000Y-72998000D01*
X119598000Y-72997000D01*
X119596000Y-72995000D01*
X119594000Y-72994000D01*
X119592000Y-72992000D01*
X119590000Y-72990000D01*
X119588000Y-72988000D01*
X119586000Y-72986000D01*
X119585000Y-72984000D01*
X119583000Y-72982000D01*
X119582000Y-72980000D01*
X119580000Y-72978000D01*
X119579000Y-72975000D01*
X119578000Y-72973000D01*
X119577000Y-72970000D01*
X119577000Y-72968000D01*
X119576000Y-72965000D01*
X119576000Y-72963000D01*
X119575000Y-72960000D01*
X119575000Y-72958000D01*
X119575000Y-72955000D01*
X119575000Y-72805000D01*
X119575000Y-72802000D01*
X119575000Y-72800000D01*
X119576000Y-72797000D01*
X119576000Y-72795000D01*
X119577000Y-72792000D01*
X119577000Y-72790000D01*
X119578000Y-72787000D01*
X119579000Y-72785000D01*
X119580000Y-72782000D01*
X119582000Y-72780000D01*
X119583000Y-72778000D01*
X119585000Y-72776000D01*
X119586000Y-72774000D01*
X119588000Y-72772000D01*
X119590000Y-72770000D01*
X119592000Y-72768000D01*
X119594000Y-72766000D01*
X119596000Y-72765000D01*
X119598000Y-72763000D01*
X119600000Y-72762000D01*
X119602000Y-72760000D01*
X119605000Y-72759000D01*
X119607000Y-72758000D01*
X119610000Y-72757000D01*
X119612000Y-72757000D01*
X119615000Y-72756000D01*
X119617000Y-72756000D01*
X119620000Y-72755000D01*
X119622000Y-72755000D01*
X119625000Y-72755000D01*
X119775000Y-72755000D01*
X119778000Y-72755000D01*
X119780000Y-72755000D01*
X119783000Y-72756000D01*
G36*
X119783000Y-72756000D02*
G01*
X119785000Y-72756000D01*
X119788000Y-72757000D01*
X119790000Y-72757000D01*
X119793000Y-72758000D01*
X119795000Y-72759000D01*
X119798000Y-72760000D01*
X119800000Y-72762000D01*
X119802000Y-72763000D01*
X119804000Y-72765000D01*
X119806000Y-72766000D01*
X119808000Y-72768000D01*
X119810000Y-72770000D01*
X119812000Y-72772000D01*
X119814000Y-72774000D01*
X119815000Y-72776000D01*
X119817000Y-72778000D01*
X119818000Y-72780000D01*
X119820000Y-72782000D01*
X119821000Y-72785000D01*
X119822000Y-72787000D01*
X119823000Y-72790000D01*
X119823000Y-72792000D01*
X119824000Y-72795000D01*
X119824000Y-72797000D01*
X119825000Y-72800000D01*
X119825000Y-72802000D01*
X119825000Y-72805000D01*
X119825000Y-72880000D01*
X119825000Y-72955000D01*
X119825000Y-72958000D01*
X119825000Y-72960000D01*
X119824000Y-72963000D01*
X119824000Y-72965000D01*
X119823000Y-72968000D01*
X119823000Y-72970000D01*
X119822000Y-72973000D01*
X119821000Y-72975000D01*
X119820000Y-72978000D01*
X119818000Y-72980000D01*
X119817000Y-72982000D01*
X119815000Y-72984000D01*
X119814000Y-72986000D01*
X119812000Y-72988000D01*
X119810000Y-72990000D01*
X119808000Y-72992000D01*
X119806000Y-72994000D01*
X119804000Y-72995000D01*
X119802000Y-72997000D01*
X119800000Y-72998000D01*
X119798000Y-73000000D01*
X119795000Y-73001000D01*
X119793000Y-73002000D01*
X119790000Y-73003000D01*
X119788000Y-73003000D01*
X119785000Y-73004000D01*
X119783000Y-73004000D01*
X119780000Y-73005000D01*
X119778000Y-73005000D01*
X119775000Y-73005000D01*
X119625000Y-73005000D01*
X119622000Y-73005000D01*
X119620000Y-73005000D01*
X119617000Y-73004000D01*
X119615000Y-73004000D01*
X119612000Y-73003000D01*
X119610000Y-73003000D01*
X119607000Y-73002000D01*
X119605000Y-73001000D01*
X119602000Y-73000000D01*
X119600000Y-72998000D01*
X119598000Y-72997000D01*
X119596000Y-72995000D01*
X119594000Y-72994000D01*
X119592000Y-72992000D01*
X119590000Y-72990000D01*
X119588000Y-72988000D01*
X119586000Y-72986000D01*
X119585000Y-72984000D01*
X119583000Y-72982000D01*
X119582000Y-72980000D01*
X119580000Y-72978000D01*
X119579000Y-72975000D01*
X119578000Y-72973000D01*
X119577000Y-72970000D01*
X119577000Y-72968000D01*
X119576000Y-72965000D01*
X119576000Y-72963000D01*
X119575000Y-72960000D01*
X119575000Y-72958000D01*
X119575000Y-72955000D01*
X119575000Y-72805000D01*
X119575000Y-72802000D01*
X119575000Y-72800000D01*
X119576000Y-72797000D01*
X119576000Y-72795000D01*
X119577000Y-72792000D01*
X119577000Y-72790000D01*
X119578000Y-72787000D01*
X119579000Y-72785000D01*
X119580000Y-72782000D01*
X119582000Y-72780000D01*
X119583000Y-72778000D01*
X119585000Y-72776000D01*
X119586000Y-72774000D01*
X119588000Y-72772000D01*
X119590000Y-72770000D01*
X119592000Y-72768000D01*
X119594000Y-72766000D01*
X119596000Y-72765000D01*
X119598000Y-72763000D01*
X119600000Y-72762000D01*
X119602000Y-72760000D01*
X119605000Y-72759000D01*
X119607000Y-72758000D01*
X119610000Y-72757000D01*
X119612000Y-72757000D01*
X119615000Y-72756000D01*
X119617000Y-72756000D01*
X119620000Y-72755000D01*
X119622000Y-72755000D01*
X119625000Y-72755000D01*
X119775000Y-72755000D01*
X119778000Y-72755000D01*
X119780000Y-72755000D01*
X119783000Y-72756000D01*
G37*
X120283000Y-71756000D02*
X120285000Y-71756000D01*
X120288000Y-71757000D01*
X120290000Y-71757000D01*
X120293000Y-71758000D01*
X120295000Y-71759000D01*
X120298000Y-71760000D01*
X120300000Y-71762000D01*
X120302000Y-71763000D01*
X120304000Y-71765000D01*
X120306000Y-71766000D01*
X120308000Y-71768000D01*
X120310000Y-71770000D01*
X120312000Y-71772000D01*
X120314000Y-71774000D01*
X120315000Y-71776000D01*
X120317000Y-71778000D01*
X120318000Y-71780000D01*
X120320000Y-71782000D01*
X120321000Y-71785000D01*
X120322000Y-71787000D01*
X120323000Y-71790000D01*
X120323000Y-71792000D01*
X120324000Y-71795000D01*
X120324000Y-71797000D01*
X120325000Y-71800000D01*
X120325000Y-71802000D01*
X120325000Y-71805000D01*
X120325000Y-71880000D01*
X120325000Y-71955000D01*
X120325000Y-71958000D01*
X120325000Y-71960000D01*
X120324000Y-71963000D01*
X120324000Y-71965000D01*
X120323000Y-71968000D01*
X120323000Y-71970000D01*
X120322000Y-71973000D01*
X120321000Y-71975000D01*
X120320000Y-71978000D01*
X120318000Y-71980000D01*
X120317000Y-71982000D01*
X120315000Y-71984000D01*
X120314000Y-71986000D01*
X120312000Y-71988000D01*
X120310000Y-71990000D01*
X120308000Y-71992000D01*
X120306000Y-71994000D01*
X120304000Y-71995000D01*
X120302000Y-71997000D01*
X120300000Y-71998000D01*
X120298000Y-72000000D01*
X120295000Y-72001000D01*
X120293000Y-72002000D01*
X120290000Y-72003000D01*
X120288000Y-72003000D01*
X120285000Y-72004000D01*
X120283000Y-72004000D01*
X120280000Y-72005000D01*
X120278000Y-72005000D01*
X120275000Y-72005000D01*
X120125000Y-72005000D01*
X120122000Y-72005000D01*
X120120000Y-72005000D01*
X120117000Y-72004000D01*
X120115000Y-72004000D01*
X120112000Y-72003000D01*
X120110000Y-72003000D01*
X120107000Y-72002000D01*
X120105000Y-72001000D01*
X120102000Y-72000000D01*
X120100000Y-71998000D01*
X120098000Y-71997000D01*
X120096000Y-71995000D01*
X120094000Y-71994000D01*
X120092000Y-71992000D01*
X120090000Y-71990000D01*
X120088000Y-71988000D01*
X120086000Y-71986000D01*
X120085000Y-71984000D01*
X120083000Y-71982000D01*
X120082000Y-71980000D01*
X120080000Y-71978000D01*
X120079000Y-71975000D01*
X120078000Y-71973000D01*
X120077000Y-71970000D01*
X120077000Y-71968000D01*
X120076000Y-71965000D01*
X120076000Y-71963000D01*
X120075000Y-71960000D01*
X120075000Y-71958000D01*
X120075000Y-71955000D01*
X120075000Y-71805000D01*
X120075000Y-71802000D01*
X120075000Y-71800000D01*
X120076000Y-71797000D01*
X120076000Y-71795000D01*
X120077000Y-71792000D01*
X120077000Y-71790000D01*
X120078000Y-71787000D01*
X120079000Y-71785000D01*
X120080000Y-71782000D01*
X120082000Y-71780000D01*
X120083000Y-71778000D01*
X120085000Y-71776000D01*
X120086000Y-71774000D01*
X120088000Y-71772000D01*
X120090000Y-71770000D01*
X120092000Y-71768000D01*
X120094000Y-71766000D01*
X120096000Y-71765000D01*
X120098000Y-71763000D01*
X120100000Y-71762000D01*
X120102000Y-71760000D01*
X120105000Y-71759000D01*
X120107000Y-71758000D01*
X120110000Y-71757000D01*
X120112000Y-71757000D01*
X120115000Y-71756000D01*
X120117000Y-71756000D01*
X120120000Y-71755000D01*
X120122000Y-71755000D01*
X120125000Y-71755000D01*
X120275000Y-71755000D01*
X120278000Y-71755000D01*
X120280000Y-71755000D01*
X120283000Y-71756000D01*
G36*
X120283000Y-71756000D02*
G01*
X120285000Y-71756000D01*
X120288000Y-71757000D01*
X120290000Y-71757000D01*
X120293000Y-71758000D01*
X120295000Y-71759000D01*
X120298000Y-71760000D01*
X120300000Y-71762000D01*
X120302000Y-71763000D01*
X120304000Y-71765000D01*
X120306000Y-71766000D01*
X120308000Y-71768000D01*
X120310000Y-71770000D01*
X120312000Y-71772000D01*
X120314000Y-71774000D01*
X120315000Y-71776000D01*
X120317000Y-71778000D01*
X120318000Y-71780000D01*
X120320000Y-71782000D01*
X120321000Y-71785000D01*
X120322000Y-71787000D01*
X120323000Y-71790000D01*
X120323000Y-71792000D01*
X120324000Y-71795000D01*
X120324000Y-71797000D01*
X120325000Y-71800000D01*
X120325000Y-71802000D01*
X120325000Y-71805000D01*
X120325000Y-71880000D01*
X120325000Y-71955000D01*
X120325000Y-71958000D01*
X120325000Y-71960000D01*
X120324000Y-71963000D01*
X120324000Y-71965000D01*
X120323000Y-71968000D01*
X120323000Y-71970000D01*
X120322000Y-71973000D01*
X120321000Y-71975000D01*
X120320000Y-71978000D01*
X120318000Y-71980000D01*
X120317000Y-71982000D01*
X120315000Y-71984000D01*
X120314000Y-71986000D01*
X120312000Y-71988000D01*
X120310000Y-71990000D01*
X120308000Y-71992000D01*
X120306000Y-71994000D01*
X120304000Y-71995000D01*
X120302000Y-71997000D01*
X120300000Y-71998000D01*
X120298000Y-72000000D01*
X120295000Y-72001000D01*
X120293000Y-72002000D01*
X120290000Y-72003000D01*
X120288000Y-72003000D01*
X120285000Y-72004000D01*
X120283000Y-72004000D01*
X120280000Y-72005000D01*
X120278000Y-72005000D01*
X120275000Y-72005000D01*
X120125000Y-72005000D01*
X120122000Y-72005000D01*
X120120000Y-72005000D01*
X120117000Y-72004000D01*
X120115000Y-72004000D01*
X120112000Y-72003000D01*
X120110000Y-72003000D01*
X120107000Y-72002000D01*
X120105000Y-72001000D01*
X120102000Y-72000000D01*
X120100000Y-71998000D01*
X120098000Y-71997000D01*
X120096000Y-71995000D01*
X120094000Y-71994000D01*
X120092000Y-71992000D01*
X120090000Y-71990000D01*
X120088000Y-71988000D01*
X120086000Y-71986000D01*
X120085000Y-71984000D01*
X120083000Y-71982000D01*
X120082000Y-71980000D01*
X120080000Y-71978000D01*
X120079000Y-71975000D01*
X120078000Y-71973000D01*
X120077000Y-71970000D01*
X120077000Y-71968000D01*
X120076000Y-71965000D01*
X120076000Y-71963000D01*
X120075000Y-71960000D01*
X120075000Y-71958000D01*
X120075000Y-71955000D01*
X120075000Y-71805000D01*
X120075000Y-71802000D01*
X120075000Y-71800000D01*
X120076000Y-71797000D01*
X120076000Y-71795000D01*
X120077000Y-71792000D01*
X120077000Y-71790000D01*
X120078000Y-71787000D01*
X120079000Y-71785000D01*
X120080000Y-71782000D01*
X120082000Y-71780000D01*
X120083000Y-71778000D01*
X120085000Y-71776000D01*
X120086000Y-71774000D01*
X120088000Y-71772000D01*
X120090000Y-71770000D01*
X120092000Y-71768000D01*
X120094000Y-71766000D01*
X120096000Y-71765000D01*
X120098000Y-71763000D01*
X120100000Y-71762000D01*
X120102000Y-71760000D01*
X120105000Y-71759000D01*
X120107000Y-71758000D01*
X120110000Y-71757000D01*
X120112000Y-71757000D01*
X120115000Y-71756000D01*
X120117000Y-71756000D01*
X120120000Y-71755000D01*
X120122000Y-71755000D01*
X120125000Y-71755000D01*
X120275000Y-71755000D01*
X120278000Y-71755000D01*
X120280000Y-71755000D01*
X120283000Y-71756000D01*
G37*
X120283000Y-72256000D02*
X120285000Y-72256000D01*
X120288000Y-72257000D01*
X120290000Y-72257000D01*
X120293000Y-72258000D01*
X120295000Y-72259000D01*
X120298000Y-72260000D01*
X120300000Y-72262000D01*
X120302000Y-72263000D01*
X120304000Y-72265000D01*
X120306000Y-72266000D01*
X120308000Y-72268000D01*
X120310000Y-72270000D01*
X120312000Y-72272000D01*
X120314000Y-72274000D01*
X120315000Y-72276000D01*
X120317000Y-72278000D01*
X120318000Y-72280000D01*
X120320000Y-72282000D01*
X120321000Y-72285000D01*
X120322000Y-72287000D01*
X120323000Y-72290000D01*
X120323000Y-72292000D01*
X120324000Y-72295000D01*
X120324000Y-72297000D01*
X120325000Y-72300000D01*
X120325000Y-72302000D01*
X120325000Y-72305000D01*
X120325000Y-72380000D01*
X120325000Y-72455000D01*
X120325000Y-72458000D01*
X120325000Y-72460000D01*
X120324000Y-72463000D01*
X120324000Y-72465000D01*
X120323000Y-72468000D01*
X120323000Y-72470000D01*
X120322000Y-72473000D01*
X120321000Y-72475000D01*
X120320000Y-72478000D01*
X120318000Y-72480000D01*
X120317000Y-72482000D01*
X120315000Y-72484000D01*
X120314000Y-72486000D01*
X120312000Y-72488000D01*
X120310000Y-72490000D01*
X120308000Y-72492000D01*
X120306000Y-72494000D01*
X120304000Y-72495000D01*
X120302000Y-72497000D01*
X120300000Y-72498000D01*
X120298000Y-72500000D01*
X120295000Y-72501000D01*
X120293000Y-72502000D01*
X120290000Y-72503000D01*
X120288000Y-72503000D01*
X120285000Y-72504000D01*
X120283000Y-72504000D01*
X120280000Y-72505000D01*
X120278000Y-72505000D01*
X120275000Y-72505000D01*
X120125000Y-72505000D01*
X120122000Y-72505000D01*
X120120000Y-72505000D01*
X120117000Y-72504000D01*
X120115000Y-72504000D01*
X120112000Y-72503000D01*
X120110000Y-72503000D01*
X120107000Y-72502000D01*
X120105000Y-72501000D01*
X120102000Y-72500000D01*
X120100000Y-72498000D01*
X120098000Y-72497000D01*
X120096000Y-72495000D01*
X120094000Y-72494000D01*
X120092000Y-72492000D01*
X120090000Y-72490000D01*
X120088000Y-72488000D01*
X120086000Y-72486000D01*
X120085000Y-72484000D01*
X120083000Y-72482000D01*
X120082000Y-72480000D01*
X120080000Y-72478000D01*
X120079000Y-72475000D01*
X120078000Y-72473000D01*
X120077000Y-72470000D01*
X120077000Y-72468000D01*
X120076000Y-72465000D01*
X120076000Y-72463000D01*
X120075000Y-72460000D01*
X120075000Y-72458000D01*
X120075000Y-72455000D01*
X120075000Y-72305000D01*
X120075000Y-72302000D01*
X120075000Y-72300000D01*
X120076000Y-72297000D01*
X120076000Y-72295000D01*
X120077000Y-72292000D01*
X120077000Y-72290000D01*
X120078000Y-72287000D01*
X120079000Y-72285000D01*
X120080000Y-72282000D01*
X120082000Y-72280000D01*
X120083000Y-72278000D01*
X120085000Y-72276000D01*
X120086000Y-72274000D01*
X120088000Y-72272000D01*
X120090000Y-72270000D01*
X120092000Y-72268000D01*
X120094000Y-72266000D01*
X120096000Y-72265000D01*
X120098000Y-72263000D01*
X120100000Y-72262000D01*
X120102000Y-72260000D01*
X120105000Y-72259000D01*
X120107000Y-72258000D01*
X120110000Y-72257000D01*
X120112000Y-72257000D01*
X120115000Y-72256000D01*
X120117000Y-72256000D01*
X120120000Y-72255000D01*
X120122000Y-72255000D01*
X120125000Y-72255000D01*
X120275000Y-72255000D01*
X120278000Y-72255000D01*
X120280000Y-72255000D01*
X120283000Y-72256000D01*
G36*
X120283000Y-72256000D02*
G01*
X120285000Y-72256000D01*
X120288000Y-72257000D01*
X120290000Y-72257000D01*
X120293000Y-72258000D01*
X120295000Y-72259000D01*
X120298000Y-72260000D01*
X120300000Y-72262000D01*
X120302000Y-72263000D01*
X120304000Y-72265000D01*
X120306000Y-72266000D01*
X120308000Y-72268000D01*
X120310000Y-72270000D01*
X120312000Y-72272000D01*
X120314000Y-72274000D01*
X120315000Y-72276000D01*
X120317000Y-72278000D01*
X120318000Y-72280000D01*
X120320000Y-72282000D01*
X120321000Y-72285000D01*
X120322000Y-72287000D01*
X120323000Y-72290000D01*
X120323000Y-72292000D01*
X120324000Y-72295000D01*
X120324000Y-72297000D01*
X120325000Y-72300000D01*
X120325000Y-72302000D01*
X120325000Y-72305000D01*
X120325000Y-72380000D01*
X120325000Y-72455000D01*
X120325000Y-72458000D01*
X120325000Y-72460000D01*
X120324000Y-72463000D01*
X120324000Y-72465000D01*
X120323000Y-72468000D01*
X120323000Y-72470000D01*
X120322000Y-72473000D01*
X120321000Y-72475000D01*
X120320000Y-72478000D01*
X120318000Y-72480000D01*
X120317000Y-72482000D01*
X120315000Y-72484000D01*
X120314000Y-72486000D01*
X120312000Y-72488000D01*
X120310000Y-72490000D01*
X120308000Y-72492000D01*
X120306000Y-72494000D01*
X120304000Y-72495000D01*
X120302000Y-72497000D01*
X120300000Y-72498000D01*
X120298000Y-72500000D01*
X120295000Y-72501000D01*
X120293000Y-72502000D01*
X120290000Y-72503000D01*
X120288000Y-72503000D01*
X120285000Y-72504000D01*
X120283000Y-72504000D01*
X120280000Y-72505000D01*
X120278000Y-72505000D01*
X120275000Y-72505000D01*
X120125000Y-72505000D01*
X120122000Y-72505000D01*
X120120000Y-72505000D01*
X120117000Y-72504000D01*
X120115000Y-72504000D01*
X120112000Y-72503000D01*
X120110000Y-72503000D01*
X120107000Y-72502000D01*
X120105000Y-72501000D01*
X120102000Y-72500000D01*
X120100000Y-72498000D01*
X120098000Y-72497000D01*
X120096000Y-72495000D01*
X120094000Y-72494000D01*
X120092000Y-72492000D01*
X120090000Y-72490000D01*
X120088000Y-72488000D01*
X120086000Y-72486000D01*
X120085000Y-72484000D01*
X120083000Y-72482000D01*
X120082000Y-72480000D01*
X120080000Y-72478000D01*
X120079000Y-72475000D01*
X120078000Y-72473000D01*
X120077000Y-72470000D01*
X120077000Y-72468000D01*
X120076000Y-72465000D01*
X120076000Y-72463000D01*
X120075000Y-72460000D01*
X120075000Y-72458000D01*
X120075000Y-72455000D01*
X120075000Y-72305000D01*
X120075000Y-72302000D01*
X120075000Y-72300000D01*
X120076000Y-72297000D01*
X120076000Y-72295000D01*
X120077000Y-72292000D01*
X120077000Y-72290000D01*
X120078000Y-72287000D01*
X120079000Y-72285000D01*
X120080000Y-72282000D01*
X120082000Y-72280000D01*
X120083000Y-72278000D01*
X120085000Y-72276000D01*
X120086000Y-72274000D01*
X120088000Y-72272000D01*
X120090000Y-72270000D01*
X120092000Y-72268000D01*
X120094000Y-72266000D01*
X120096000Y-72265000D01*
X120098000Y-72263000D01*
X120100000Y-72262000D01*
X120102000Y-72260000D01*
X120105000Y-72259000D01*
X120107000Y-72258000D01*
X120110000Y-72257000D01*
X120112000Y-72257000D01*
X120115000Y-72256000D01*
X120117000Y-72256000D01*
X120120000Y-72255000D01*
X120122000Y-72255000D01*
X120125000Y-72255000D01*
X120275000Y-72255000D01*
X120278000Y-72255000D01*
X120280000Y-72255000D01*
X120283000Y-72256000D01*
G37*
X120283000Y-72756000D02*
X120285000Y-72756000D01*
X120288000Y-72757000D01*
X120290000Y-72757000D01*
X120293000Y-72758000D01*
X120295000Y-72759000D01*
X120298000Y-72760000D01*
X120300000Y-72762000D01*
X120302000Y-72763000D01*
X120304000Y-72765000D01*
X120306000Y-72766000D01*
X120308000Y-72768000D01*
X120310000Y-72770000D01*
X120312000Y-72772000D01*
X120314000Y-72774000D01*
X120315000Y-72776000D01*
X120317000Y-72778000D01*
X120318000Y-72780000D01*
X120320000Y-72782000D01*
X120321000Y-72785000D01*
X120322000Y-72787000D01*
X120323000Y-72790000D01*
X120323000Y-72792000D01*
X120324000Y-72795000D01*
X120324000Y-72797000D01*
X120325000Y-72800000D01*
X120325000Y-72802000D01*
X120325000Y-72805000D01*
X120325000Y-72880000D01*
X120325000Y-72955000D01*
X120325000Y-72958000D01*
X120325000Y-72960000D01*
X120324000Y-72963000D01*
X120324000Y-72965000D01*
X120323000Y-72968000D01*
X120323000Y-72970000D01*
X120322000Y-72973000D01*
X120321000Y-72975000D01*
X120320000Y-72978000D01*
X120318000Y-72980000D01*
X120317000Y-72982000D01*
X120315000Y-72984000D01*
X120314000Y-72986000D01*
X120312000Y-72988000D01*
X120310000Y-72990000D01*
X120308000Y-72992000D01*
X120306000Y-72994000D01*
X120304000Y-72995000D01*
X120302000Y-72997000D01*
X120300000Y-72998000D01*
X120298000Y-73000000D01*
X120295000Y-73001000D01*
X120293000Y-73002000D01*
X120290000Y-73003000D01*
X120288000Y-73003000D01*
X120285000Y-73004000D01*
X120283000Y-73004000D01*
X120280000Y-73005000D01*
X120278000Y-73005000D01*
X120275000Y-73005000D01*
X120125000Y-73005000D01*
X120122000Y-73005000D01*
X120120000Y-73005000D01*
X120117000Y-73004000D01*
X120115000Y-73004000D01*
X120112000Y-73003000D01*
X120110000Y-73003000D01*
X120107000Y-73002000D01*
X120105000Y-73001000D01*
X120102000Y-73000000D01*
X120100000Y-72998000D01*
X120098000Y-72997000D01*
X120096000Y-72995000D01*
X120094000Y-72994000D01*
X120092000Y-72992000D01*
X120090000Y-72990000D01*
X120088000Y-72988000D01*
X120086000Y-72986000D01*
X120085000Y-72984000D01*
X120083000Y-72982000D01*
X120082000Y-72980000D01*
X120080000Y-72978000D01*
X120079000Y-72975000D01*
X120078000Y-72973000D01*
X120077000Y-72970000D01*
X120077000Y-72968000D01*
X120076000Y-72965000D01*
X120076000Y-72963000D01*
X120075000Y-72960000D01*
X120075000Y-72958000D01*
X120075000Y-72955000D01*
X120075000Y-72805000D01*
X120075000Y-72802000D01*
X120075000Y-72800000D01*
X120076000Y-72797000D01*
X120076000Y-72795000D01*
X120077000Y-72792000D01*
X120077000Y-72790000D01*
X120078000Y-72787000D01*
X120079000Y-72785000D01*
X120080000Y-72782000D01*
X120082000Y-72780000D01*
X120083000Y-72778000D01*
X120085000Y-72776000D01*
X120086000Y-72774000D01*
X120088000Y-72772000D01*
X120090000Y-72770000D01*
X120092000Y-72768000D01*
X120094000Y-72766000D01*
X120096000Y-72765000D01*
X120098000Y-72763000D01*
X120100000Y-72762000D01*
X120102000Y-72760000D01*
X120105000Y-72759000D01*
X120107000Y-72758000D01*
X120110000Y-72757000D01*
X120112000Y-72757000D01*
X120115000Y-72756000D01*
X120117000Y-72756000D01*
X120120000Y-72755000D01*
X120122000Y-72755000D01*
X120125000Y-72755000D01*
X120275000Y-72755000D01*
X120278000Y-72755000D01*
X120280000Y-72755000D01*
X120283000Y-72756000D01*
G36*
X120283000Y-72756000D02*
G01*
X120285000Y-72756000D01*
X120288000Y-72757000D01*
X120290000Y-72757000D01*
X120293000Y-72758000D01*
X120295000Y-72759000D01*
X120298000Y-72760000D01*
X120300000Y-72762000D01*
X120302000Y-72763000D01*
X120304000Y-72765000D01*
X120306000Y-72766000D01*
X120308000Y-72768000D01*
X120310000Y-72770000D01*
X120312000Y-72772000D01*
X120314000Y-72774000D01*
X120315000Y-72776000D01*
X120317000Y-72778000D01*
X120318000Y-72780000D01*
X120320000Y-72782000D01*
X120321000Y-72785000D01*
X120322000Y-72787000D01*
X120323000Y-72790000D01*
X120323000Y-72792000D01*
X120324000Y-72795000D01*
X120324000Y-72797000D01*
X120325000Y-72800000D01*
X120325000Y-72802000D01*
X120325000Y-72805000D01*
X120325000Y-72880000D01*
X120325000Y-72955000D01*
X120325000Y-72958000D01*
X120325000Y-72960000D01*
X120324000Y-72963000D01*
X120324000Y-72965000D01*
X120323000Y-72968000D01*
X120323000Y-72970000D01*
X120322000Y-72973000D01*
X120321000Y-72975000D01*
X120320000Y-72978000D01*
X120318000Y-72980000D01*
X120317000Y-72982000D01*
X120315000Y-72984000D01*
X120314000Y-72986000D01*
X120312000Y-72988000D01*
X120310000Y-72990000D01*
X120308000Y-72992000D01*
X120306000Y-72994000D01*
X120304000Y-72995000D01*
X120302000Y-72997000D01*
X120300000Y-72998000D01*
X120298000Y-73000000D01*
X120295000Y-73001000D01*
X120293000Y-73002000D01*
X120290000Y-73003000D01*
X120288000Y-73003000D01*
X120285000Y-73004000D01*
X120283000Y-73004000D01*
X120280000Y-73005000D01*
X120278000Y-73005000D01*
X120275000Y-73005000D01*
X120125000Y-73005000D01*
X120122000Y-73005000D01*
X120120000Y-73005000D01*
X120117000Y-73004000D01*
X120115000Y-73004000D01*
X120112000Y-73003000D01*
X120110000Y-73003000D01*
X120107000Y-73002000D01*
X120105000Y-73001000D01*
X120102000Y-73000000D01*
X120100000Y-72998000D01*
X120098000Y-72997000D01*
X120096000Y-72995000D01*
X120094000Y-72994000D01*
X120092000Y-72992000D01*
X120090000Y-72990000D01*
X120088000Y-72988000D01*
X120086000Y-72986000D01*
X120085000Y-72984000D01*
X120083000Y-72982000D01*
X120082000Y-72980000D01*
X120080000Y-72978000D01*
X120079000Y-72975000D01*
X120078000Y-72973000D01*
X120077000Y-72970000D01*
X120077000Y-72968000D01*
X120076000Y-72965000D01*
X120076000Y-72963000D01*
X120075000Y-72960000D01*
X120075000Y-72958000D01*
X120075000Y-72955000D01*
X120075000Y-72805000D01*
X120075000Y-72802000D01*
X120075000Y-72800000D01*
X120076000Y-72797000D01*
X120076000Y-72795000D01*
X120077000Y-72792000D01*
X120077000Y-72790000D01*
X120078000Y-72787000D01*
X120079000Y-72785000D01*
X120080000Y-72782000D01*
X120082000Y-72780000D01*
X120083000Y-72778000D01*
X120085000Y-72776000D01*
X120086000Y-72774000D01*
X120088000Y-72772000D01*
X120090000Y-72770000D01*
X120092000Y-72768000D01*
X120094000Y-72766000D01*
X120096000Y-72765000D01*
X120098000Y-72763000D01*
X120100000Y-72762000D01*
X120102000Y-72760000D01*
X120105000Y-72759000D01*
X120107000Y-72758000D01*
X120110000Y-72757000D01*
X120112000Y-72757000D01*
X120115000Y-72756000D01*
X120117000Y-72756000D01*
X120120000Y-72755000D01*
X120122000Y-72755000D01*
X120125000Y-72755000D01*
X120275000Y-72755000D01*
X120278000Y-72755000D01*
X120280000Y-72755000D01*
X120283000Y-72756000D01*
G37*
X120783000Y-71756000D02*
X120785000Y-71756000D01*
X120788000Y-71757000D01*
X120790000Y-71757000D01*
X120793000Y-71758000D01*
X120795000Y-71759000D01*
X120798000Y-71760000D01*
X120800000Y-71762000D01*
X120802000Y-71763000D01*
X120804000Y-71765000D01*
X120806000Y-71766000D01*
X120808000Y-71768000D01*
X120810000Y-71770000D01*
X120812000Y-71772000D01*
X120814000Y-71774000D01*
X120815000Y-71776000D01*
X120817000Y-71778000D01*
X120818000Y-71780000D01*
X120820000Y-71782000D01*
X120821000Y-71785000D01*
X120822000Y-71787000D01*
X120823000Y-71790000D01*
X120823000Y-71792000D01*
X120824000Y-71795000D01*
X120824000Y-71797000D01*
X120825000Y-71800000D01*
X120825000Y-71802000D01*
X120825000Y-71805000D01*
X120825000Y-71880000D01*
X120825000Y-71955000D01*
X120825000Y-71958000D01*
X120825000Y-71960000D01*
X120824000Y-71963000D01*
X120824000Y-71965000D01*
X120823000Y-71968000D01*
X120823000Y-71970000D01*
X120822000Y-71973000D01*
X120821000Y-71975000D01*
X120820000Y-71978000D01*
X120818000Y-71980000D01*
X120817000Y-71982000D01*
X120815000Y-71984000D01*
X120814000Y-71986000D01*
X120812000Y-71988000D01*
X120810000Y-71990000D01*
X120808000Y-71992000D01*
X120806000Y-71994000D01*
X120804000Y-71995000D01*
X120802000Y-71997000D01*
X120800000Y-71998000D01*
X120798000Y-72000000D01*
X120795000Y-72001000D01*
X120793000Y-72002000D01*
X120790000Y-72003000D01*
X120788000Y-72003000D01*
X120785000Y-72004000D01*
X120783000Y-72004000D01*
X120780000Y-72005000D01*
X120778000Y-72005000D01*
X120775000Y-72005000D01*
X120625000Y-72005000D01*
X120622000Y-72005000D01*
X120620000Y-72005000D01*
X120617000Y-72004000D01*
X120615000Y-72004000D01*
X120612000Y-72003000D01*
X120610000Y-72003000D01*
X120607000Y-72002000D01*
X120605000Y-72001000D01*
X120602000Y-72000000D01*
X120600000Y-71998000D01*
X120598000Y-71997000D01*
X120596000Y-71995000D01*
X120594000Y-71994000D01*
X120592000Y-71992000D01*
X120590000Y-71990000D01*
X120588000Y-71988000D01*
X120586000Y-71986000D01*
X120585000Y-71984000D01*
X120583000Y-71982000D01*
X120582000Y-71980000D01*
X120580000Y-71978000D01*
X120579000Y-71975000D01*
X120578000Y-71973000D01*
X120577000Y-71970000D01*
X120577000Y-71968000D01*
X120576000Y-71965000D01*
X120576000Y-71963000D01*
X120575000Y-71960000D01*
X120575000Y-71958000D01*
X120575000Y-71955000D01*
X120575000Y-71805000D01*
X120575000Y-71802000D01*
X120575000Y-71800000D01*
X120576000Y-71797000D01*
X120576000Y-71795000D01*
X120577000Y-71792000D01*
X120577000Y-71790000D01*
X120578000Y-71787000D01*
X120579000Y-71785000D01*
X120580000Y-71782000D01*
X120582000Y-71780000D01*
X120583000Y-71778000D01*
X120585000Y-71776000D01*
X120586000Y-71774000D01*
X120588000Y-71772000D01*
X120590000Y-71770000D01*
X120592000Y-71768000D01*
X120594000Y-71766000D01*
X120596000Y-71765000D01*
X120598000Y-71763000D01*
X120600000Y-71762000D01*
X120602000Y-71760000D01*
X120605000Y-71759000D01*
X120607000Y-71758000D01*
X120610000Y-71757000D01*
X120612000Y-71757000D01*
X120615000Y-71756000D01*
X120617000Y-71756000D01*
X120620000Y-71755000D01*
X120622000Y-71755000D01*
X120625000Y-71755000D01*
X120775000Y-71755000D01*
X120778000Y-71755000D01*
X120780000Y-71755000D01*
X120783000Y-71756000D01*
G36*
X120783000Y-71756000D02*
G01*
X120785000Y-71756000D01*
X120788000Y-71757000D01*
X120790000Y-71757000D01*
X120793000Y-71758000D01*
X120795000Y-71759000D01*
X120798000Y-71760000D01*
X120800000Y-71762000D01*
X120802000Y-71763000D01*
X120804000Y-71765000D01*
X120806000Y-71766000D01*
X120808000Y-71768000D01*
X120810000Y-71770000D01*
X120812000Y-71772000D01*
X120814000Y-71774000D01*
X120815000Y-71776000D01*
X120817000Y-71778000D01*
X120818000Y-71780000D01*
X120820000Y-71782000D01*
X120821000Y-71785000D01*
X120822000Y-71787000D01*
X120823000Y-71790000D01*
X120823000Y-71792000D01*
X120824000Y-71795000D01*
X120824000Y-71797000D01*
X120825000Y-71800000D01*
X120825000Y-71802000D01*
X120825000Y-71805000D01*
X120825000Y-71880000D01*
X120825000Y-71955000D01*
X120825000Y-71958000D01*
X120825000Y-71960000D01*
X120824000Y-71963000D01*
X120824000Y-71965000D01*
X120823000Y-71968000D01*
X120823000Y-71970000D01*
X120822000Y-71973000D01*
X120821000Y-71975000D01*
X120820000Y-71978000D01*
X120818000Y-71980000D01*
X120817000Y-71982000D01*
X120815000Y-71984000D01*
X120814000Y-71986000D01*
X120812000Y-71988000D01*
X120810000Y-71990000D01*
X120808000Y-71992000D01*
X120806000Y-71994000D01*
X120804000Y-71995000D01*
X120802000Y-71997000D01*
X120800000Y-71998000D01*
X120798000Y-72000000D01*
X120795000Y-72001000D01*
X120793000Y-72002000D01*
X120790000Y-72003000D01*
X120788000Y-72003000D01*
X120785000Y-72004000D01*
X120783000Y-72004000D01*
X120780000Y-72005000D01*
X120778000Y-72005000D01*
X120775000Y-72005000D01*
X120625000Y-72005000D01*
X120622000Y-72005000D01*
X120620000Y-72005000D01*
X120617000Y-72004000D01*
X120615000Y-72004000D01*
X120612000Y-72003000D01*
X120610000Y-72003000D01*
X120607000Y-72002000D01*
X120605000Y-72001000D01*
X120602000Y-72000000D01*
X120600000Y-71998000D01*
X120598000Y-71997000D01*
X120596000Y-71995000D01*
X120594000Y-71994000D01*
X120592000Y-71992000D01*
X120590000Y-71990000D01*
X120588000Y-71988000D01*
X120586000Y-71986000D01*
X120585000Y-71984000D01*
X120583000Y-71982000D01*
X120582000Y-71980000D01*
X120580000Y-71978000D01*
X120579000Y-71975000D01*
X120578000Y-71973000D01*
X120577000Y-71970000D01*
X120577000Y-71968000D01*
X120576000Y-71965000D01*
X120576000Y-71963000D01*
X120575000Y-71960000D01*
X120575000Y-71958000D01*
X120575000Y-71955000D01*
X120575000Y-71805000D01*
X120575000Y-71802000D01*
X120575000Y-71800000D01*
X120576000Y-71797000D01*
X120576000Y-71795000D01*
X120577000Y-71792000D01*
X120577000Y-71790000D01*
X120578000Y-71787000D01*
X120579000Y-71785000D01*
X120580000Y-71782000D01*
X120582000Y-71780000D01*
X120583000Y-71778000D01*
X120585000Y-71776000D01*
X120586000Y-71774000D01*
X120588000Y-71772000D01*
X120590000Y-71770000D01*
X120592000Y-71768000D01*
X120594000Y-71766000D01*
X120596000Y-71765000D01*
X120598000Y-71763000D01*
X120600000Y-71762000D01*
X120602000Y-71760000D01*
X120605000Y-71759000D01*
X120607000Y-71758000D01*
X120610000Y-71757000D01*
X120612000Y-71757000D01*
X120615000Y-71756000D01*
X120617000Y-71756000D01*
X120620000Y-71755000D01*
X120622000Y-71755000D01*
X120625000Y-71755000D01*
X120775000Y-71755000D01*
X120778000Y-71755000D01*
X120780000Y-71755000D01*
X120783000Y-71756000D01*
G37*
X120783000Y-72256000D02*
X120785000Y-72256000D01*
X120788000Y-72257000D01*
X120790000Y-72257000D01*
X120793000Y-72258000D01*
X120795000Y-72259000D01*
X120798000Y-72260000D01*
X120800000Y-72262000D01*
X120802000Y-72263000D01*
X120804000Y-72265000D01*
X120806000Y-72266000D01*
X120808000Y-72268000D01*
X120810000Y-72270000D01*
X120812000Y-72272000D01*
X120814000Y-72274000D01*
X120815000Y-72276000D01*
X120817000Y-72278000D01*
X120818000Y-72280000D01*
X120820000Y-72282000D01*
X120821000Y-72285000D01*
X120822000Y-72287000D01*
X120823000Y-72290000D01*
X120823000Y-72292000D01*
X120824000Y-72295000D01*
X120824000Y-72297000D01*
X120825000Y-72300000D01*
X120825000Y-72302000D01*
X120825000Y-72305000D01*
X120825000Y-72380000D01*
X120825000Y-72455000D01*
X120825000Y-72458000D01*
X120825000Y-72460000D01*
X120824000Y-72463000D01*
X120824000Y-72465000D01*
X120823000Y-72468000D01*
X120823000Y-72470000D01*
X120822000Y-72473000D01*
X120821000Y-72475000D01*
X120820000Y-72478000D01*
X120818000Y-72480000D01*
X120817000Y-72482000D01*
X120815000Y-72484000D01*
X120814000Y-72486000D01*
X120812000Y-72488000D01*
X120810000Y-72490000D01*
X120808000Y-72492000D01*
X120806000Y-72494000D01*
X120804000Y-72495000D01*
X120802000Y-72497000D01*
X120800000Y-72498000D01*
X120798000Y-72500000D01*
X120795000Y-72501000D01*
X120793000Y-72502000D01*
X120790000Y-72503000D01*
X120788000Y-72503000D01*
X120785000Y-72504000D01*
X120783000Y-72504000D01*
X120780000Y-72505000D01*
X120778000Y-72505000D01*
X120775000Y-72505000D01*
X120625000Y-72505000D01*
X120622000Y-72505000D01*
X120620000Y-72505000D01*
X120617000Y-72504000D01*
X120615000Y-72504000D01*
X120612000Y-72503000D01*
X120610000Y-72503000D01*
X120607000Y-72502000D01*
X120605000Y-72501000D01*
X120602000Y-72500000D01*
X120600000Y-72498000D01*
X120598000Y-72497000D01*
X120596000Y-72495000D01*
X120594000Y-72494000D01*
X120592000Y-72492000D01*
X120590000Y-72490000D01*
X120588000Y-72488000D01*
X120586000Y-72486000D01*
X120585000Y-72484000D01*
X120583000Y-72482000D01*
X120582000Y-72480000D01*
X120580000Y-72478000D01*
X120579000Y-72475000D01*
X120578000Y-72473000D01*
X120577000Y-72470000D01*
X120577000Y-72468000D01*
X120576000Y-72465000D01*
X120576000Y-72463000D01*
X120575000Y-72460000D01*
X120575000Y-72458000D01*
X120575000Y-72455000D01*
X120575000Y-72305000D01*
X120575000Y-72302000D01*
X120575000Y-72300000D01*
X120576000Y-72297000D01*
X120576000Y-72295000D01*
X120577000Y-72292000D01*
X120577000Y-72290000D01*
X120578000Y-72287000D01*
X120579000Y-72285000D01*
X120580000Y-72282000D01*
X120582000Y-72280000D01*
X120583000Y-72278000D01*
X120585000Y-72276000D01*
X120586000Y-72274000D01*
X120588000Y-72272000D01*
X120590000Y-72270000D01*
X120592000Y-72268000D01*
X120594000Y-72266000D01*
X120596000Y-72265000D01*
X120598000Y-72263000D01*
X120600000Y-72262000D01*
X120602000Y-72260000D01*
X120605000Y-72259000D01*
X120607000Y-72258000D01*
X120610000Y-72257000D01*
X120612000Y-72257000D01*
X120615000Y-72256000D01*
X120617000Y-72256000D01*
X120620000Y-72255000D01*
X120622000Y-72255000D01*
X120625000Y-72255000D01*
X120775000Y-72255000D01*
X120778000Y-72255000D01*
X120780000Y-72255000D01*
X120783000Y-72256000D01*
G36*
X120783000Y-72256000D02*
G01*
X120785000Y-72256000D01*
X120788000Y-72257000D01*
X120790000Y-72257000D01*
X120793000Y-72258000D01*
X120795000Y-72259000D01*
X120798000Y-72260000D01*
X120800000Y-72262000D01*
X120802000Y-72263000D01*
X120804000Y-72265000D01*
X120806000Y-72266000D01*
X120808000Y-72268000D01*
X120810000Y-72270000D01*
X120812000Y-72272000D01*
X120814000Y-72274000D01*
X120815000Y-72276000D01*
X120817000Y-72278000D01*
X120818000Y-72280000D01*
X120820000Y-72282000D01*
X120821000Y-72285000D01*
X120822000Y-72287000D01*
X120823000Y-72290000D01*
X120823000Y-72292000D01*
X120824000Y-72295000D01*
X120824000Y-72297000D01*
X120825000Y-72300000D01*
X120825000Y-72302000D01*
X120825000Y-72305000D01*
X120825000Y-72380000D01*
X120825000Y-72455000D01*
X120825000Y-72458000D01*
X120825000Y-72460000D01*
X120824000Y-72463000D01*
X120824000Y-72465000D01*
X120823000Y-72468000D01*
X120823000Y-72470000D01*
X120822000Y-72473000D01*
X120821000Y-72475000D01*
X120820000Y-72478000D01*
X120818000Y-72480000D01*
X120817000Y-72482000D01*
X120815000Y-72484000D01*
X120814000Y-72486000D01*
X120812000Y-72488000D01*
X120810000Y-72490000D01*
X120808000Y-72492000D01*
X120806000Y-72494000D01*
X120804000Y-72495000D01*
X120802000Y-72497000D01*
X120800000Y-72498000D01*
X120798000Y-72500000D01*
X120795000Y-72501000D01*
X120793000Y-72502000D01*
X120790000Y-72503000D01*
X120788000Y-72503000D01*
X120785000Y-72504000D01*
X120783000Y-72504000D01*
X120780000Y-72505000D01*
X120778000Y-72505000D01*
X120775000Y-72505000D01*
X120625000Y-72505000D01*
X120622000Y-72505000D01*
X120620000Y-72505000D01*
X120617000Y-72504000D01*
X120615000Y-72504000D01*
X120612000Y-72503000D01*
X120610000Y-72503000D01*
X120607000Y-72502000D01*
X120605000Y-72501000D01*
X120602000Y-72500000D01*
X120600000Y-72498000D01*
X120598000Y-72497000D01*
X120596000Y-72495000D01*
X120594000Y-72494000D01*
X120592000Y-72492000D01*
X120590000Y-72490000D01*
X120588000Y-72488000D01*
X120586000Y-72486000D01*
X120585000Y-72484000D01*
X120583000Y-72482000D01*
X120582000Y-72480000D01*
X120580000Y-72478000D01*
X120579000Y-72475000D01*
X120578000Y-72473000D01*
X120577000Y-72470000D01*
X120577000Y-72468000D01*
X120576000Y-72465000D01*
X120576000Y-72463000D01*
X120575000Y-72460000D01*
X120575000Y-72458000D01*
X120575000Y-72455000D01*
X120575000Y-72305000D01*
X120575000Y-72302000D01*
X120575000Y-72300000D01*
X120576000Y-72297000D01*
X120576000Y-72295000D01*
X120577000Y-72292000D01*
X120577000Y-72290000D01*
X120578000Y-72287000D01*
X120579000Y-72285000D01*
X120580000Y-72282000D01*
X120582000Y-72280000D01*
X120583000Y-72278000D01*
X120585000Y-72276000D01*
X120586000Y-72274000D01*
X120588000Y-72272000D01*
X120590000Y-72270000D01*
X120592000Y-72268000D01*
X120594000Y-72266000D01*
X120596000Y-72265000D01*
X120598000Y-72263000D01*
X120600000Y-72262000D01*
X120602000Y-72260000D01*
X120605000Y-72259000D01*
X120607000Y-72258000D01*
X120610000Y-72257000D01*
X120612000Y-72257000D01*
X120615000Y-72256000D01*
X120617000Y-72256000D01*
X120620000Y-72255000D01*
X120622000Y-72255000D01*
X120625000Y-72255000D01*
X120775000Y-72255000D01*
X120778000Y-72255000D01*
X120780000Y-72255000D01*
X120783000Y-72256000D01*
G37*
X120783000Y-72756000D02*
X120785000Y-72756000D01*
X120788000Y-72757000D01*
X120790000Y-72757000D01*
X120793000Y-72758000D01*
X120795000Y-72759000D01*
X120798000Y-72760000D01*
X120800000Y-72762000D01*
X120802000Y-72763000D01*
X120804000Y-72765000D01*
X120806000Y-72766000D01*
X120808000Y-72768000D01*
X120810000Y-72770000D01*
X120812000Y-72772000D01*
X120814000Y-72774000D01*
X120815000Y-72776000D01*
X120817000Y-72778000D01*
X120818000Y-72780000D01*
X120820000Y-72782000D01*
X120821000Y-72785000D01*
X120822000Y-72787000D01*
X120823000Y-72790000D01*
X120823000Y-72792000D01*
X120824000Y-72795000D01*
X120824000Y-72797000D01*
X120825000Y-72800000D01*
X120825000Y-72802000D01*
X120825000Y-72805000D01*
X120825000Y-72880000D01*
X120825000Y-72955000D01*
X120825000Y-72958000D01*
X120825000Y-72960000D01*
X120824000Y-72963000D01*
X120824000Y-72965000D01*
X120823000Y-72968000D01*
X120823000Y-72970000D01*
X120822000Y-72973000D01*
X120821000Y-72975000D01*
X120820000Y-72978000D01*
X120818000Y-72980000D01*
X120817000Y-72982000D01*
X120815000Y-72984000D01*
X120814000Y-72986000D01*
X120812000Y-72988000D01*
X120810000Y-72990000D01*
X120808000Y-72992000D01*
X120806000Y-72994000D01*
X120804000Y-72995000D01*
X120802000Y-72997000D01*
X120800000Y-72998000D01*
X120798000Y-73000000D01*
X120795000Y-73001000D01*
X120793000Y-73002000D01*
X120790000Y-73003000D01*
X120788000Y-73003000D01*
X120785000Y-73004000D01*
X120783000Y-73004000D01*
X120780000Y-73005000D01*
X120778000Y-73005000D01*
X120775000Y-73005000D01*
X120625000Y-73005000D01*
X120622000Y-73005000D01*
X120620000Y-73005000D01*
X120617000Y-73004000D01*
X120615000Y-73004000D01*
X120612000Y-73003000D01*
X120610000Y-73003000D01*
X120607000Y-73002000D01*
X120605000Y-73001000D01*
X120602000Y-73000000D01*
X120600000Y-72998000D01*
X120598000Y-72997000D01*
X120596000Y-72995000D01*
X120594000Y-72994000D01*
X120592000Y-72992000D01*
X120590000Y-72990000D01*
X120588000Y-72988000D01*
X120586000Y-72986000D01*
X120585000Y-72984000D01*
X120583000Y-72982000D01*
X120582000Y-72980000D01*
X120580000Y-72978000D01*
X120579000Y-72975000D01*
X120578000Y-72973000D01*
X120577000Y-72970000D01*
X120577000Y-72968000D01*
X120576000Y-72965000D01*
X120576000Y-72963000D01*
X120575000Y-72960000D01*
X120575000Y-72958000D01*
X120575000Y-72955000D01*
X120575000Y-72805000D01*
X120575000Y-72802000D01*
X120575000Y-72800000D01*
X120576000Y-72797000D01*
X120576000Y-72795000D01*
X120577000Y-72792000D01*
X120577000Y-72790000D01*
X120578000Y-72787000D01*
X120579000Y-72785000D01*
X120580000Y-72782000D01*
X120582000Y-72780000D01*
X120583000Y-72778000D01*
X120585000Y-72776000D01*
X120586000Y-72774000D01*
X120588000Y-72772000D01*
X120590000Y-72770000D01*
X120592000Y-72768000D01*
X120594000Y-72766000D01*
X120596000Y-72765000D01*
X120598000Y-72763000D01*
X120600000Y-72762000D01*
X120602000Y-72760000D01*
X120605000Y-72759000D01*
X120607000Y-72758000D01*
X120610000Y-72757000D01*
X120612000Y-72757000D01*
X120615000Y-72756000D01*
X120617000Y-72756000D01*
X120620000Y-72755000D01*
X120622000Y-72755000D01*
X120625000Y-72755000D01*
X120775000Y-72755000D01*
X120778000Y-72755000D01*
X120780000Y-72755000D01*
X120783000Y-72756000D01*
G36*
X120783000Y-72756000D02*
G01*
X120785000Y-72756000D01*
X120788000Y-72757000D01*
X120790000Y-72757000D01*
X120793000Y-72758000D01*
X120795000Y-72759000D01*
X120798000Y-72760000D01*
X120800000Y-72762000D01*
X120802000Y-72763000D01*
X120804000Y-72765000D01*
X120806000Y-72766000D01*
X120808000Y-72768000D01*
X120810000Y-72770000D01*
X120812000Y-72772000D01*
X120814000Y-72774000D01*
X120815000Y-72776000D01*
X120817000Y-72778000D01*
X120818000Y-72780000D01*
X120820000Y-72782000D01*
X120821000Y-72785000D01*
X120822000Y-72787000D01*
X120823000Y-72790000D01*
X120823000Y-72792000D01*
X120824000Y-72795000D01*
X120824000Y-72797000D01*
X120825000Y-72800000D01*
X120825000Y-72802000D01*
X120825000Y-72805000D01*
X120825000Y-72880000D01*
X120825000Y-72955000D01*
X120825000Y-72958000D01*
X120825000Y-72960000D01*
X120824000Y-72963000D01*
X120824000Y-72965000D01*
X120823000Y-72968000D01*
X120823000Y-72970000D01*
X120822000Y-72973000D01*
X120821000Y-72975000D01*
X120820000Y-72978000D01*
X120818000Y-72980000D01*
X120817000Y-72982000D01*
X120815000Y-72984000D01*
X120814000Y-72986000D01*
X120812000Y-72988000D01*
X120810000Y-72990000D01*
X120808000Y-72992000D01*
X120806000Y-72994000D01*
X120804000Y-72995000D01*
X120802000Y-72997000D01*
X120800000Y-72998000D01*
X120798000Y-73000000D01*
X120795000Y-73001000D01*
X120793000Y-73002000D01*
X120790000Y-73003000D01*
X120788000Y-73003000D01*
X120785000Y-73004000D01*
X120783000Y-73004000D01*
X120780000Y-73005000D01*
X120778000Y-73005000D01*
X120775000Y-73005000D01*
X120625000Y-73005000D01*
X120622000Y-73005000D01*
X120620000Y-73005000D01*
X120617000Y-73004000D01*
X120615000Y-73004000D01*
X120612000Y-73003000D01*
X120610000Y-73003000D01*
X120607000Y-73002000D01*
X120605000Y-73001000D01*
X120602000Y-73000000D01*
X120600000Y-72998000D01*
X120598000Y-72997000D01*
X120596000Y-72995000D01*
X120594000Y-72994000D01*
X120592000Y-72992000D01*
X120590000Y-72990000D01*
X120588000Y-72988000D01*
X120586000Y-72986000D01*
X120585000Y-72984000D01*
X120583000Y-72982000D01*
X120582000Y-72980000D01*
X120580000Y-72978000D01*
X120579000Y-72975000D01*
X120578000Y-72973000D01*
X120577000Y-72970000D01*
X120577000Y-72968000D01*
X120576000Y-72965000D01*
X120576000Y-72963000D01*
X120575000Y-72960000D01*
X120575000Y-72958000D01*
X120575000Y-72955000D01*
X120575000Y-72805000D01*
X120575000Y-72802000D01*
X120575000Y-72800000D01*
X120576000Y-72797000D01*
X120576000Y-72795000D01*
X120577000Y-72792000D01*
X120577000Y-72790000D01*
X120578000Y-72787000D01*
X120579000Y-72785000D01*
X120580000Y-72782000D01*
X120582000Y-72780000D01*
X120583000Y-72778000D01*
X120585000Y-72776000D01*
X120586000Y-72774000D01*
X120588000Y-72772000D01*
X120590000Y-72770000D01*
X120592000Y-72768000D01*
X120594000Y-72766000D01*
X120596000Y-72765000D01*
X120598000Y-72763000D01*
X120600000Y-72762000D01*
X120602000Y-72760000D01*
X120605000Y-72759000D01*
X120607000Y-72758000D01*
X120610000Y-72757000D01*
X120612000Y-72757000D01*
X120615000Y-72756000D01*
X120617000Y-72756000D01*
X120620000Y-72755000D01*
X120622000Y-72755000D01*
X120625000Y-72755000D01*
X120775000Y-72755000D01*
X120778000Y-72755000D01*
X120780000Y-72755000D01*
X120783000Y-72756000D01*
G37*
%TD*%
D11*
%TO.C,U10*%
X157550000Y-89950000D03*
D12*
X157550000Y-89400000D03*
X157550000Y-88900000D03*
X155600000Y-88900000D03*
X155600000Y-89400000D03*
X155600000Y-89900000D03*
D13*
X156575000Y-89400000D03*
D14*
X156575000Y-88550000D03*
X156575000Y-90250000D03*
%TD*%
D11*
%TO.C,U1*%
X119601450Y-77050000D03*
D12*
X119601450Y-77600000D03*
X119601450Y-78100000D03*
X121551450Y-78100000D03*
X121551450Y-77600000D03*
X121551450Y-77100000D03*
D13*
X120576450Y-77600000D03*
D14*
X120576450Y-78450000D03*
X120576450Y-76750000D03*
%TD*%
D15*
%TO.C,L2*%
X152300000Y-102785000D03*
X152300000Y-101815000D03*
%TD*%
D16*
%TO.C,U9*%
X162200565Y-105749440D03*
X161100745Y-105749440D03*
X164400205Y-117250560D03*
X163300385Y-117250560D03*
X164400205Y-105749440D03*
X163300385Y-105749440D03*
X158901105Y-105749440D03*
X158901105Y-117250560D03*
X162200565Y-117250560D03*
X161100745Y-117250560D03*
X160000925Y-105749440D03*
X160000925Y-117250560D03*
X157801285Y-117250560D03*
X156701465Y-117250560D03*
X157801285Y-105749440D03*
X156701465Y-105749440D03*
X155601645Y-105749440D03*
X152302185Y-105749440D03*
X155601645Y-117250560D03*
X154501825Y-105749440D03*
D17*
X165953415Y-108200540D03*
X165953415Y-109300360D03*
X165953415Y-110400180D03*
X165953415Y-111500000D03*
X165953415Y-112599820D03*
X165953415Y-113699640D03*
X165953415Y-114799460D03*
D16*
X154501825Y-117250560D03*
X153402005Y-117250560D03*
X152302185Y-117250560D03*
%TD*%
D18*
%TO.C,U8*%
X164750000Y-83150000D03*
X164750000Y-84350000D03*
X164750000Y-85550000D03*
X164750000Y-86750000D03*
X164750000Y-87950000D03*
D19*
X166100000Y-89650000D03*
X167300000Y-89650000D03*
X168500000Y-89650000D03*
X169700000Y-89650000D03*
X170900000Y-89650000D03*
X172100000Y-89650000D03*
D18*
X173450000Y-87950000D03*
X173450000Y-86750000D03*
X173450000Y-85550000D03*
X173450000Y-84300000D03*
X173450000Y-83150000D03*
%TD*%
D20*
%TO.C,R32*%
X158810000Y-84350000D03*
X157790000Y-84350000D03*
%TD*%
D21*
%TO.C,R31*%
X157790000Y-85350000D03*
X158810000Y-85350000D03*
%TD*%
D22*
%TO.C,R19*%
X158250000Y-79840000D03*
X158250000Y-80860000D03*
%TD*%
D23*
%TO.C,L3*%
X161000000Y-90650000D03*
X161000000Y-88452900D03*
%TD*%
D24*
%TO.C,D6*%
X155600000Y-103750000D03*
X156000000Y-103750000D03*
%TD*%
D25*
%TO.C,C46*%
X160950000Y-86600000D03*
X160950000Y-84700000D03*
%TD*%
D26*
%TO.C,C45*%
X159100000Y-86600000D03*
X157550000Y-86600000D03*
%TD*%
D27*
%TO.C,C44*%
X153550000Y-90700000D03*
X153550000Y-89150000D03*
%TD*%
D28*
%TO.C,C43*%
X152320000Y-103900000D03*
X153280000Y-103900000D03*
%TD*%
%TO.C,C42*%
X152300000Y-100700000D03*
X153260000Y-100700000D03*
%TD*%
D29*
%TO.C,C34*%
X154975000Y-67000000D03*
X156525000Y-67000000D03*
%TD*%
D30*
%TO.C,C33*%
X131600000Y-107075000D03*
X131600000Y-108625000D03*
%TD*%
D21*
%TO.C,R15*%
X158240000Y-78800000D03*
X159260000Y-78800000D03*
%TD*%
D24*
%TO.C,D4*%
X126900000Y-78300000D03*
X126500000Y-78300000D03*
%TD*%
D29*
%TO.C,C27*%
X158475000Y-77450000D03*
X160025000Y-77450000D03*
%TD*%
D31*
%TO.C,Q1*%
X119950000Y-89500000D03*
X121250000Y-89500000D03*
X120600000Y-87500000D03*
%TD*%
D21*
%TO.C,R22*%
X119740000Y-91450000D03*
X120760000Y-91450000D03*
%TD*%
D30*
%TO.C,C3*%
X113200000Y-78500000D03*
X113200000Y-80050000D03*
%TD*%
D32*
%TO.C,Q2*%
X126750000Y-89687500D03*
X128650000Y-89687500D03*
X127700000Y-87812500D03*
%TD*%
D33*
%TO.C,C28*%
X157200000Y-77170000D03*
X157200000Y-78130000D03*
%TD*%
D20*
%TO.C,R16*%
X109210000Y-75800000D03*
X108190000Y-75800000D03*
%TD*%
D30*
%TO.C,C2*%
X123701450Y-77025000D03*
X123701450Y-78575000D03*
%TD*%
D34*
%TO.C,C35*%
X131792462Y-69557538D03*
X131792462Y-68597538D03*
%TD*%
D28*
%TO.C,C26*%
X134112462Y-79607538D03*
X135072462Y-79607538D03*
%TD*%
D35*
%TO.C,R1*%
X131799874Y-115742401D03*
X131799874Y-117567401D03*
%TD*%
D29*
%TO.C,C41*%
X169325000Y-118800000D03*
X170875000Y-118800000D03*
%TD*%
D22*
%TO.C,R24*%
X118550000Y-85040000D03*
X118550000Y-86060000D03*
%TD*%
D36*
%TO.C,C16*%
X131842462Y-73957538D03*
X130882462Y-73957538D03*
%TD*%
D29*
%TO.C,C40*%
X173975000Y-94250000D03*
X175525000Y-94250000D03*
%TD*%
D37*
%TO.C,U2*%
X128515099Y-114669937D03*
X128515099Y-115170063D03*
D38*
X128799874Y-115704901D03*
X129300000Y-115704901D03*
X129800126Y-115704901D03*
D37*
X130084901Y-115170063D03*
X130084901Y-114669937D03*
D38*
X129800126Y-114135099D03*
X129300000Y-114135099D03*
X128799874Y-114135099D03*
%TD*%
D28*
%TO.C,C38*%
X132112462Y-82907538D03*
X133072462Y-82907538D03*
%TD*%
D39*
%TO.C,D2*%
X125875000Y-85750000D03*
X124300000Y-85750000D03*
%TD*%
D33*
%TO.C,C21*%
X144650000Y-69970000D03*
X144650000Y-70930000D03*
%TD*%
D40*
%TO.C,D5*%
X118565000Y-82800000D03*
X116635000Y-82800000D03*
%TD*%
D36*
%TO.C,C19*%
X140114924Y-67000000D03*
X139154924Y-67000000D03*
%TD*%
D41*
%TO.C,R8*%
X109125000Y-108120000D03*
X109125000Y-107100000D03*
%TD*%
D42*
%TO.C,U5*%
X137500000Y-84500000D03*
X139500000Y-84500000D03*
X137500000Y-82800000D03*
X139500000Y-82800000D03*
D43*
X136595000Y-86312500D03*
X137865000Y-86312500D03*
X139135000Y-86312500D03*
X140405000Y-86312500D03*
X140405000Y-80987500D03*
X139135000Y-80987500D03*
X137865000Y-80987500D03*
X136595000Y-80987500D03*
%TD*%
D41*
%TO.C,R14*%
X135145000Y-86307500D03*
X135145000Y-85287500D03*
%TD*%
D36*
%TO.C,C20*%
X135614924Y-67000000D03*
X134654924Y-67000000D03*
%TD*%
D20*
%TO.C,R7*%
X120610000Y-74800000D03*
X119590000Y-74800000D03*
%TD*%
D33*
%TO.C,C29*%
X109200000Y-70320000D03*
X109200000Y-71280000D03*
%TD*%
D44*
%TO.C,U4*%
X134133600Y-70300000D03*
X134133600Y-70799999D03*
X134133600Y-71300001D03*
X134133600Y-71800000D03*
X134133600Y-72299999D03*
X134133600Y-72800000D03*
X134133600Y-73300000D03*
X134133600Y-73800001D03*
X134133600Y-74300000D03*
X134133600Y-74799999D03*
X134133600Y-75300001D03*
X134133600Y-75800000D03*
D45*
X135600000Y-77266400D03*
X136099999Y-77266400D03*
X136600001Y-77266400D03*
X137100000Y-77266400D03*
X137599999Y-77266400D03*
X138100000Y-77266400D03*
X138600000Y-77266400D03*
X139100001Y-77266400D03*
X139600000Y-77266400D03*
X140099999Y-77266400D03*
X140600001Y-77266400D03*
X141100000Y-77266400D03*
D44*
X142566400Y-75800000D03*
X142566400Y-75300001D03*
X142566400Y-74799999D03*
X142566400Y-74300000D03*
X142566400Y-73800001D03*
X142566400Y-73300000D03*
X142566400Y-72800000D03*
X142566400Y-72299999D03*
X142566400Y-71800000D03*
X142566400Y-71300001D03*
X142566400Y-70799999D03*
X142566400Y-70300000D03*
D45*
X141100000Y-68833600D03*
X140600001Y-68833600D03*
X140099999Y-68833600D03*
X139600000Y-68833600D03*
X139100001Y-68833600D03*
X138600000Y-68833600D03*
X138100000Y-68833600D03*
X137599999Y-68833600D03*
X137100000Y-68833600D03*
X136600001Y-68833600D03*
X136099999Y-68833600D03*
X135600000Y-68833600D03*
%TD*%
D36*
%TO.C,C39*%
X133072462Y-80707538D03*
X132112462Y-80707538D03*
%TD*%
D46*
%TO.C,J6*%
X106132500Y-74800000D03*
D47*
X106132500Y-76820000D03*
D48*
X106132500Y-78050000D03*
D49*
X106132500Y-75800000D03*
D50*
X106132500Y-73780000D03*
D51*
X106132500Y-72550000D03*
D52*
X106077500Y-70175000D03*
D53*
X102497500Y-70175000D03*
D52*
X106077500Y-80425000D03*
D53*
X102497500Y-80425000D03*
%TD*%
D54*
%TO.C,X2*%
X131392462Y-71857538D03*
X131392462Y-70657538D03*
%TD*%
D55*
%TO.C,C4*%
X110100000Y-78475000D03*
X110100000Y-80375000D03*
%TD*%
D22*
%TO.C,FB2*%
X130692462Y-77340000D03*
X130692462Y-78360000D03*
%TD*%
D36*
%TO.C,C25*%
X129942462Y-71757538D03*
X128982462Y-71757538D03*
%TD*%
D34*
%TO.C,C37*%
X131792462Y-75887538D03*
X131792462Y-74927538D03*
%TD*%
D20*
%TO.C,R21*%
X118560000Y-91450000D03*
X117540000Y-91450000D03*
%TD*%
%TO.C,R23*%
X127760000Y-91450000D03*
X126740000Y-91450000D03*
%TD*%
D41*
%TO.C,R2*%
X111800000Y-79685000D03*
X111800000Y-78665000D03*
%TD*%
D56*
%TO.C,S1*%
X147250000Y-106100000D03*
X142750000Y-106100000D03*
X147250000Y-115200000D03*
X142750000Y-115200000D03*
%TD*%
D22*
%TO.C,R5*%
X115500000Y-72390000D03*
X115500000Y-73410000D03*
%TD*%
D27*
%TO.C,C14*%
X144900000Y-68625000D03*
X144900000Y-67075000D03*
%TD*%
D34*
%TO.C,C36*%
X130692462Y-75887538D03*
X130692462Y-74927538D03*
%TD*%
D29*
%TO.C,C8*%
X111092500Y-111360000D03*
X112642500Y-111360000D03*
%TD*%
D21*
%TO.C,R18*%
X144390000Y-117700000D03*
X145410000Y-117700000D03*
%TD*%
D57*
%TO.C,U3*%
X110700000Y-108210000D03*
X110700000Y-108710000D03*
X110700000Y-109210000D03*
X110700000Y-109710000D03*
D58*
X111362500Y-109872500D03*
X111862500Y-109872500D03*
X112362500Y-109872500D03*
D57*
X113025000Y-109710000D03*
X113025000Y-109210000D03*
X113025000Y-108710000D03*
X113025000Y-108210000D03*
D58*
X112362500Y-108047500D03*
X111862500Y-108047500D03*
X111362500Y-108047500D03*
%TD*%
D59*
%TO.C,L1*%
X117100000Y-77600000D03*
X114902900Y-77600000D03*
%TD*%
D41*
%TO.C,R6*%
X122600000Y-74020000D03*
X122600000Y-73000000D03*
%TD*%
D29*
%TO.C,C5*%
X128524874Y-110904901D03*
X130074874Y-110904901D03*
%TD*%
D33*
%TO.C,C32*%
X117800000Y-72420000D03*
X117800000Y-73380000D03*
%TD*%
D30*
%TO.C,C1*%
X126599874Y-114154901D03*
X126599874Y-115704901D03*
%TD*%
D36*
%TO.C,C15*%
X141130000Y-79000000D03*
X140170000Y-79000000D03*
%TD*%
D39*
%TO.C,D1*%
X114475000Y-86200000D03*
X112900000Y-86200000D03*
%TD*%
D20*
%TO.C,R17*%
X109210000Y-74800000D03*
X108190000Y-74800000D03*
%TD*%
D21*
%TO.C,R26*%
X110340000Y-86200000D03*
X111360000Y-86200000D03*
%TD*%
D36*
%TO.C,C23*%
X133072462Y-79607538D03*
X132112462Y-79607538D03*
%TD*%
D41*
%TO.C,R4*%
X109200000Y-73410000D03*
X109200000Y-72390000D03*
%TD*%
D22*
%TO.C,R20*%
X125300000Y-77290000D03*
X125300000Y-78310000D03*
%TD*%
D28*
%TO.C,C18*%
X128962462Y-73957538D03*
X129922462Y-73957538D03*
%TD*%
D39*
%TO.C,D3*%
X121475000Y-85750000D03*
X119900000Y-85750000D03*
%TD*%
D33*
%TO.C,C22*%
X135145000Y-80957500D03*
X135145000Y-81917500D03*
%TD*%
D36*
%TO.C,C24*%
X129942462Y-70707538D03*
X128982462Y-70707538D03*
%TD*%
D22*
%TO.C,R9*%
X108025000Y-107100000D03*
X108025000Y-108120000D03*
%TD*%
D35*
%TO.C,R27*%
X130192462Y-67415038D03*
X130192462Y-69240038D03*
%TD*%
D22*
%TO.C,R25*%
X122900000Y-85040000D03*
X122900000Y-86060000D03*
%TD*%
D21*
%TO.C,R10*%
X112357500Y-106810000D03*
X113377500Y-106810000D03*
%TD*%
D41*
%TO.C,R3*%
X111800000Y-81735000D03*
X111800000Y-80715000D03*
%TD*%
D20*
%TO.C,R28*%
X137694924Y-67000000D03*
X136674924Y-67000000D03*
%TD*%
D34*
%TO.C,C17*%
X127942462Y-72487538D03*
X127942462Y-71527538D03*
%TD*%
D60*
%TO.C,IC1*%
X155800000Y-70000000D03*
X155800000Y-70725000D03*
X155800000Y-71450000D03*
X155800000Y-72175000D03*
X155800000Y-73025000D03*
X155800000Y-73750000D03*
X155800000Y-74475000D03*
X155800000Y-75200000D03*
X156500000Y-70000000D03*
X156500000Y-70725000D03*
X156500000Y-71450000D03*
X156500000Y-73025000D03*
X156500000Y-73750000D03*
X156500000Y-74475000D03*
X156500000Y-75200000D03*
X157200000Y-70000000D03*
X157200000Y-70725000D03*
X157200000Y-74475000D03*
X157200000Y-75200000D03*
X157900000Y-70000000D03*
X157900000Y-70725000D03*
X157900000Y-74475000D03*
X157900000Y-75200000D03*
X158600000Y-70000000D03*
X158600000Y-70725000D03*
X158600000Y-74475000D03*
X158600000Y-75200000D03*
X159300000Y-70000000D03*
X159300000Y-70725000D03*
X159300000Y-71450000D03*
X159300000Y-72175000D03*
X159300000Y-73025000D03*
X159300000Y-73750000D03*
X159300000Y-74475000D03*
X159300000Y-75200000D03*
X159900000Y-70000000D03*
X159900000Y-70725000D03*
X159900000Y-71450000D03*
X159900000Y-72175000D03*
X159900000Y-73025000D03*
X159900000Y-73750000D03*
X159900000Y-74475000D03*
X159900000Y-75200000D03*
D61*
X160550000Y-69950000D03*
X160550000Y-75250000D03*
X161300000Y-69950000D03*
X161300000Y-75250000D03*
X162050000Y-69950000D03*
X162050000Y-75250000D03*
X162800000Y-69950000D03*
X162800000Y-75250000D03*
%TD*%
D36*
%TO.C,C31*%
X119780000Y-70000000D03*
X118820000Y-70000000D03*
%TD*%
D21*
%TO.C,R29*%
X132082462Y-81807538D03*
X133102462Y-81807538D03*
%TD*%
D62*
%TO.C,U6*%
X113595400Y-72539800D03*
X113595400Y-71600000D03*
X113595400Y-70660200D03*
X111004600Y-70660200D03*
X111004600Y-72539800D03*
%TD*%
D33*
%TO.C,C30*%
X115500000Y-70320000D03*
X115500000Y-71280000D03*
%TD*%
D30*
%TO.C,C7*%
X114567500Y-109835000D03*
X114567500Y-111385000D03*
%TD*%
D29*
%TO.C,C6*%
X128524874Y-112554901D03*
X130074874Y-112554901D03*
%TD*%
D63*
%TO.C,X1*%
X127497056Y-73962132D03*
X126542462Y-73007538D03*
X125800000Y-73750000D03*
X126754594Y-74704594D03*
%TD*%
D41*
%TO.C,R30*%
X171900000Y-112660000D03*
X171900000Y-111640000D03*
%TD*%
M02*
