%TF.GenerationSoftware,KiCad,Pcbnew,8.0.7*%
%TF.CreationDate,2025-02-08T18:07:02-05:00*%
%TF.ProjectId,Fallyx_EVK-RevA,46616c6c-7978-45f4-9556-4b2d52657641,rev?*%
%TF.SameCoordinates,Original*%
%TF.FileFunction,Soldermask,Top*%
%TF.FilePolarity,Negative*%
%FSLAX46Y46*%
G04 Gerber Fmt 4.6, Leading zero omitted, Abs format (unit mm)*
G04 Created by KiCad (PCBNEW 8.0.7) date 2025-02-08 18:07:02*
%MOMM*%
%LPD*%
G01*
G04 APERTURE LIST*
G04 Aperture macros list*
%AMRoundRect*
0 Rectangle with rounded corners*
0 $1 Rounding radius*
0 $2 $3 $4 $5 $6 $7 $8 $9 X,Y pos of 4 corners*
0 Add a 4 corners polygon primitive as box body*
4,1,4,$2,$3,$4,$5,$6,$7,$8,$9,$2,$3,0*
0 Add four circle primitives for the rounded corners*
1,1,$1+$1,$2,$3*
1,1,$1+$1,$4,$5*
1,1,$1+$1,$6,$7*
1,1,$1+$1,$8,$9*
0 Add four rect primitives between the rounded corners*
20,1,$1+$1,$2,$3,$4,$5,0*
20,1,$1+$1,$4,$5,$6,$7,0*
20,1,$1+$1,$6,$7,$8,$9,0*
20,1,$1+$1,$8,$9,$2,$3,0*%
G04 Aperture macros list end*
%ADD10C,0.010000*%
%ADD11C,0.172500*%
%ADD12R,0.450000X0.350000*%
%ADD13R,0.450000X0.250000*%
%ADD14R,1.000000X1.600000*%
%ADD15R,0.900000X0.100000*%
%ADD16RoundRect,0.102000X0.500000X0.525000X-0.500000X0.525000X-0.500000X-0.525000X0.500000X-0.525000X0*%
%ADD17RoundRect,0.102000X0.525000X1.100000X-0.525000X1.100000X-0.525000X-1.100000X0.525000X-1.100000X0*%
%ADD18RoundRect,0.147500X0.172500X-0.147500X0.172500X0.147500X-0.172500X0.147500X-0.172500X-0.147500X0*%
%ADD19R,0.711200X1.498600*%
%ADD20R,1.498600X0.711200*%
%ADD21R,1.500000X0.700000*%
%ADD22R,0.700000X1.500000*%
%ADD23RoundRect,0.135000X0.135000X0.185000X-0.135000X0.185000X-0.135000X-0.185000X0.135000X-0.185000X0*%
%ADD24RoundRect,0.135000X-0.135000X-0.185000X0.135000X-0.185000X0.135000X0.185000X-0.135000X0.185000X0*%
%ADD25RoundRect,0.135000X-0.185000X0.135000X-0.185000X-0.135000X0.185000X-0.135000X0.185000X0.135000X0*%
%ADD26R,2.692400X0.800100*%
%ADD27RoundRect,0.250000X0.475000X-0.250000X0.475000X0.250000X-0.475000X0.250000X-0.475000X-0.250000X0*%
%ADD28RoundRect,0.225000X0.225000X0.250000X-0.225000X0.250000X-0.225000X-0.250000X0.225000X-0.250000X0*%
%ADD29RoundRect,0.225000X0.250000X-0.225000X0.250000X0.225000X-0.250000X0.225000X-0.250000X-0.225000X0*%
%ADD30RoundRect,0.140000X-0.140000X-0.170000X0.140000X-0.170000X0.140000X0.170000X-0.140000X0.170000X0*%
%ADD31RoundRect,0.225000X-0.225000X-0.250000X0.225000X-0.250000X0.225000X0.250000X-0.225000X0.250000X0*%
%ADD32RoundRect,0.225000X-0.250000X0.225000X-0.250000X-0.225000X0.250000X-0.225000X0.250000X0.225000X0*%
%ADD33RoundRect,0.112500X-0.112500X-0.237500X0.112500X-0.237500X0.112500X0.237500X-0.112500X0.237500X0*%
%ADD34R,1.700000X1.700000*%
%ADD35O,1.700000X1.700000*%
%ADD36RoundRect,0.150000X0.150000X-0.587500X0.150000X0.587500X-0.150000X0.587500X-0.150000X-0.587500X0*%
%ADD37RoundRect,0.140000X-0.170000X0.140000X-0.170000X-0.140000X0.170000X-0.140000X0.170000X0.140000X0*%
%ADD38RoundRect,0.140000X0.170000X-0.140000X0.170000X0.140000X-0.170000X0.140000X-0.170000X-0.140000X0*%
%ADD39RoundRect,0.102000X0.762000X-0.762000X0.762000X0.762000X-0.762000X0.762000X-0.762000X-0.762000X0*%
%ADD40C,1.728000*%
%ADD41RoundRect,0.250000X-0.450000X0.262500X-0.450000X-0.262500X0.450000X-0.262500X0.450000X0.262500X0*%
%ADD42RoundRect,0.140000X0.140000X0.170000X-0.140000X0.170000X-0.140000X-0.170000X0.140000X-0.170000X0*%
%ADD43R,0.330200X0.304800*%
%ADD44R,0.304800X0.330200*%
%ADD45RoundRect,0.218750X0.218750X0.256250X-0.218750X0.256250X-0.218750X-0.256250X0.218750X-0.256250X0*%
%ADD46C,1.500000*%
%ADD47RoundRect,0.102000X0.395000X0.135000X-0.395000X0.135000X-0.395000X-0.135000X0.395000X-0.135000X0*%
%ADD48RoundRect,0.135000X0.185000X-0.135000X0.185000X0.135000X-0.185000X0.135000X-0.185000X-0.135000X0*%
%ADD49RoundRect,0.125000X0.125000X-0.262500X0.125000X0.262500X-0.125000X0.262500X-0.125000X-0.262500X0*%
%ADD50R,4.000000X3.400000*%
%ADD51R,1.473200X0.279400*%
%ADD52R,0.279400X1.473200*%
%ADD53RoundRect,0.175000X-0.425000X0.175000X-0.425000X-0.175000X0.425000X-0.175000X0.425000X0.175000X0*%
%ADD54RoundRect,0.190000X0.410000X-0.190000X0.410000X0.190000X-0.410000X0.190000X-0.410000X-0.190000X0*%
%ADD55RoundRect,0.200000X0.400000X-0.200000X0.400000X0.200000X-0.400000X0.200000X-0.400000X-0.200000X0*%
%ADD56RoundRect,0.175000X0.425000X-0.175000X0.425000X0.175000X-0.425000X0.175000X-0.425000X-0.175000X0*%
%ADD57RoundRect,0.190000X-0.410000X0.190000X-0.410000X-0.190000X0.410000X-0.190000X0.410000X0.190000X0*%
%ADD58RoundRect,0.200000X-0.400000X0.200000X-0.400000X-0.200000X0.400000X-0.200000X0.400000X0.200000X0*%
%ADD59RoundRect,0.250000X-0.425000X0.650000X-0.425000X-0.650000X0.425000X-0.650000X0.425000X0.650000X0*%
%ADD60RoundRect,0.250000X-0.500000X0.650000X-0.500000X-0.650000X0.500000X-0.650000X0.500000X0.650000X0*%
%ADD61RoundRect,0.102000X0.600000X-0.300000X0.600000X0.300000X-0.600000X0.300000X-0.600000X-0.300000X0*%
%ADD62RoundRect,0.250000X-0.475000X0.250000X-0.475000X-0.250000X0.475000X-0.250000X0.475000X0.250000X0*%
%ADD63RoundRect,0.102000X-0.700000X1.050000X-0.700000X-1.050000X0.700000X-1.050000X0.700000X1.050000X0*%
%ADD64RoundRect,0.102000X-0.237500X-0.125000X0.237500X-0.125000X0.237500X0.125000X-0.237500X0.125000X0*%
%ADD65RoundRect,0.102000X-0.125000X-0.237500X0.125000X-0.237500X0.125000X0.237500X-0.125000X0.237500X0*%
%ADD66R,0.800100X2.692400*%
%ADD67RoundRect,0.102000X-0.200000X-0.200000X0.200000X-0.200000X0.200000X0.200000X-0.200000X0.200000X0*%
%ADD68RoundRect,0.102000X-0.200000X-0.150000X0.200000X-0.150000X0.200000X0.150000X-0.200000X0.150000X0*%
%ADD69RoundRect,0.102000X0.635000X0.279400X-0.635000X0.279400X-0.635000X-0.279400X0.635000X-0.279400X0*%
%ADD70RoundRect,0.102000X0.565685X-0.035355X-0.035355X0.565685X-0.565685X0.035355X0.035355X-0.565685X0*%
G04 APERTURE END LIST*
D10*
%TO.C,D6*%
X155750000Y-103975000D02*
X155450000Y-103975000D01*
X155450000Y-103525000D01*
X155750000Y-103525000D01*
X155750000Y-103975000D01*
G36*
X155750000Y-103975000D02*
G01*
X155450000Y-103975000D01*
X155450000Y-103525000D01*
X155750000Y-103525000D01*
X155750000Y-103975000D01*
G37*
X156150000Y-103975000D02*
X155850000Y-103975000D01*
X155850000Y-103525000D01*
X156150000Y-103525000D01*
X156150000Y-103975000D01*
G36*
X156150000Y-103975000D02*
G01*
X155850000Y-103975000D01*
X155850000Y-103525000D01*
X156150000Y-103525000D01*
X156150000Y-103975000D01*
G37*
%TO.C,D4*%
X126650000Y-78525000D02*
X126350000Y-78525000D01*
X126350000Y-78075000D01*
X126650000Y-78075000D01*
X126650000Y-78525000D01*
G36*
X126650000Y-78525000D02*
G01*
X126350000Y-78525000D01*
X126350000Y-78075000D01*
X126650000Y-78075000D01*
X126650000Y-78525000D01*
G37*
X127050000Y-78525000D02*
X126750000Y-78525000D01*
X126750000Y-78075000D01*
X127050000Y-78075000D01*
X127050000Y-78525000D01*
G36*
X127050000Y-78525000D02*
G01*
X126750000Y-78525000D01*
X126750000Y-78075000D01*
X127050000Y-78075000D01*
X127050000Y-78525000D01*
G37*
D11*
%TO.C,U7*%
X119786250Y-71880000D02*
G75*
G02*
X119613750Y-71880000I-86250J0D01*
G01*
X119613750Y-71880000D02*
G75*
G02*
X119786250Y-71880000I86250J0D01*
G01*
X119786250Y-72380000D02*
G75*
G02*
X119613750Y-72380000I-86250J0D01*
G01*
X119613750Y-72380000D02*
G75*
G02*
X119786250Y-72380000I86250J0D01*
G01*
X119786250Y-72880000D02*
G75*
G02*
X119613750Y-72880000I-86250J0D01*
G01*
X119613750Y-72880000D02*
G75*
G02*
X119786250Y-72880000I86250J0D01*
G01*
X120286250Y-71880000D02*
G75*
G02*
X120113750Y-71880000I-86250J0D01*
G01*
X120113750Y-71880000D02*
G75*
G02*
X120286250Y-71880000I86250J0D01*
G01*
X120286250Y-72380000D02*
G75*
G02*
X120113750Y-72380000I-86250J0D01*
G01*
X120113750Y-72380000D02*
G75*
G02*
X120286250Y-72380000I86250J0D01*
G01*
X120286250Y-72880000D02*
G75*
G02*
X120113750Y-72880000I-86250J0D01*
G01*
X120113750Y-72880000D02*
G75*
G02*
X120286250Y-72880000I86250J0D01*
G01*
X120786250Y-71880000D02*
G75*
G02*
X120613750Y-71880000I-86250J0D01*
G01*
X120613750Y-71880000D02*
G75*
G02*
X120786250Y-71880000I86250J0D01*
G01*
X120786250Y-72380000D02*
G75*
G02*
X120613750Y-72380000I-86250J0D01*
G01*
X120613750Y-72380000D02*
G75*
G02*
X120786250Y-72380000I86250J0D01*
G01*
X120786250Y-72880000D02*
G75*
G02*
X120613750Y-72880000I-86250J0D01*
G01*
X120613750Y-72880000D02*
G75*
G02*
X120786250Y-72880000I86250J0D01*
G01*
%TD*%
D12*
%TO.C,U10*%
X157550000Y-89950000D03*
D13*
X157550000Y-89400000D03*
X157550000Y-88900000D03*
X155600000Y-88900000D03*
X155600000Y-89400000D03*
X155600000Y-89900000D03*
D14*
X156575000Y-89400000D03*
D15*
X156575000Y-88550000D03*
X156575000Y-90250000D03*
%TD*%
D12*
%TO.C,U1*%
X119601450Y-77050000D03*
D13*
X119601450Y-77600000D03*
X119601450Y-78100000D03*
X121551450Y-78100000D03*
X121551450Y-77600000D03*
X121551450Y-77100000D03*
D14*
X120576450Y-77600000D03*
D15*
X120576450Y-78450000D03*
X120576450Y-76750000D03*
%TD*%
D16*
%TO.C,J9*%
X156250000Y-99825000D03*
D17*
X157725000Y-101350000D03*
X154775000Y-101350000D03*
%TD*%
D18*
%TO.C,L2*%
X152300000Y-102785000D03*
X152300000Y-101815000D03*
%TD*%
D19*
%TO.C,U9*%
X162200565Y-105749440D03*
X161100745Y-105749440D03*
X164400205Y-117250560D03*
X163300385Y-117250560D03*
X164400205Y-105749440D03*
X163300385Y-105749440D03*
X158901105Y-105749440D03*
X158901105Y-117250560D03*
X162200565Y-117250560D03*
X161100745Y-117250560D03*
X160000925Y-105749440D03*
X160000925Y-117250560D03*
X157801285Y-117250560D03*
X156701465Y-117250560D03*
X157801285Y-105749440D03*
X156701465Y-105749440D03*
X155601645Y-105749440D03*
X152302185Y-105749440D03*
X155601645Y-117250560D03*
X154501825Y-105749440D03*
D20*
X165953415Y-108200540D03*
X165953415Y-109300360D03*
X165953415Y-110400180D03*
X165953415Y-111500000D03*
X165953415Y-112599820D03*
X165953415Y-113699640D03*
X165953415Y-114799460D03*
D19*
X154501825Y-117250560D03*
X153402005Y-117250560D03*
X152302185Y-117250560D03*
%TD*%
D21*
%TO.C,U8*%
X164750000Y-83150000D03*
X164750000Y-84350000D03*
X164750000Y-85550000D03*
X164750000Y-86750000D03*
X164750000Y-87950000D03*
D22*
X166100000Y-89650000D03*
X167300000Y-89650000D03*
X168500000Y-89650000D03*
X169700000Y-89650000D03*
X170900000Y-89650000D03*
X172100000Y-89650000D03*
D21*
X173450000Y-87950000D03*
X173450000Y-86750000D03*
X173450000Y-85550000D03*
X173450000Y-84300000D03*
X173450000Y-83150000D03*
%TD*%
D23*
%TO.C,R32*%
X158810000Y-84350000D03*
X157790000Y-84350000D03*
%TD*%
D24*
%TO.C,R31*%
X157790000Y-85350000D03*
X158810000Y-85350000D03*
%TD*%
D25*
%TO.C,R19*%
X158250000Y-79840000D03*
X158250000Y-80860000D03*
%TD*%
D26*
%TO.C,L3*%
X161000000Y-90650000D03*
X161000000Y-88452900D03*
%TD*%
D27*
%TO.C,C46*%
X160950000Y-86600000D03*
X160950000Y-84700000D03*
%TD*%
D28*
%TO.C,C45*%
X159100000Y-86600000D03*
X157550000Y-86600000D03*
%TD*%
D29*
%TO.C,C44*%
X153550000Y-90700000D03*
X153550000Y-89150000D03*
%TD*%
D30*
%TO.C,C43*%
X152320000Y-103900000D03*
X153280000Y-103900000D03*
%TD*%
%TO.C,C42*%
X152300000Y-100700000D03*
X153260000Y-100700000D03*
%TD*%
D31*
%TO.C,C34*%
X154975000Y-67000000D03*
X156525000Y-67000000D03*
%TD*%
D32*
%TO.C,C33*%
X131600000Y-107075000D03*
X131600000Y-108625000D03*
%TD*%
D24*
%TO.C,R15*%
X158240000Y-78800000D03*
X159260000Y-78800000D03*
%TD*%
D31*
%TO.C,C27*%
X158475000Y-77450000D03*
X160025000Y-77450000D03*
%TD*%
D33*
%TO.C,Q1*%
X119950000Y-89500000D03*
X121250000Y-89500000D03*
X120600000Y-87500000D03*
%TD*%
D24*
%TO.C,R22*%
X119740000Y-91450000D03*
X120760000Y-91450000D03*
%TD*%
D32*
%TO.C,C3*%
X113200000Y-78500000D03*
X113200000Y-80050000D03*
%TD*%
D34*
%TO.C,J4*%
X151800000Y-68270000D03*
D35*
X151800000Y-70810000D03*
X151800000Y-73350000D03*
X151800000Y-75890000D03*
X151800000Y-78430000D03*
X151800000Y-80970000D03*
X151800000Y-83510000D03*
X151800000Y-86050000D03*
%TD*%
D36*
%TO.C,Q2*%
X126750000Y-89687500D03*
X128650000Y-89687500D03*
X127700000Y-87812500D03*
%TD*%
D37*
%TO.C,C28*%
X157200000Y-77170000D03*
X157200000Y-78130000D03*
%TD*%
D23*
%TO.C,R16*%
X109210000Y-75800000D03*
X108190000Y-75800000D03*
%TD*%
D32*
%TO.C,C2*%
X123701450Y-77025000D03*
X123701450Y-78575000D03*
%TD*%
D38*
%TO.C,C35*%
X131792462Y-69557538D03*
X131792462Y-68597538D03*
%TD*%
D30*
%TO.C,C26*%
X134112462Y-79607538D03*
X135072462Y-79607538D03*
%TD*%
D39*
%TO.C,J5*%
X116970000Y-67150000D03*
D40*
X114430000Y-67150000D03*
%TD*%
D41*
%TO.C,R1*%
X131799874Y-115742401D03*
X131799874Y-117567401D03*
%TD*%
D31*
%TO.C,C41*%
X169325000Y-118800000D03*
X170875000Y-118800000D03*
%TD*%
D25*
%TO.C,R24*%
X118550000Y-85040000D03*
X118550000Y-86060000D03*
%TD*%
D34*
%TO.C,J12*%
X113975000Y-96625000D03*
D35*
X113975000Y-94085000D03*
X116515000Y-96625000D03*
X116515000Y-94085000D03*
X119055000Y-96625000D03*
X119055000Y-94085000D03*
X121595000Y-96625000D03*
X121595000Y-94085000D03*
X124135000Y-96625000D03*
X124135000Y-94085000D03*
X126675000Y-96625000D03*
X126675000Y-94085000D03*
X129215000Y-96625000D03*
X129215000Y-94085000D03*
X131755000Y-96625000D03*
X131755000Y-94085000D03*
X134295000Y-96625000D03*
X134295000Y-94085000D03*
X136835000Y-96625000D03*
X136835000Y-94085000D03*
X139375000Y-96625000D03*
X139375000Y-94085000D03*
X141915000Y-96625000D03*
X141915000Y-94085000D03*
X144455000Y-96625000D03*
X144455000Y-94085000D03*
X146995000Y-96625000D03*
X146995000Y-94085000D03*
X149535000Y-96625000D03*
X149535000Y-94085000D03*
X152075000Y-96625000D03*
X152075000Y-94085000D03*
X154615000Y-96625000D03*
X154615000Y-94085000D03*
X157155000Y-96625000D03*
X157155000Y-94085000D03*
X159695000Y-96625000D03*
X159695000Y-94085000D03*
X162235000Y-96625000D03*
X162235000Y-94085000D03*
%TD*%
D42*
%TO.C,C16*%
X131842462Y-73957538D03*
X130882462Y-73957538D03*
%TD*%
D34*
%TO.C,J13*%
X174700000Y-97380000D03*
D35*
X174700000Y-99920000D03*
X174700000Y-102460000D03*
X174700000Y-105000000D03*
X174700000Y-107540000D03*
X174700000Y-110080000D03*
X174700000Y-112620000D03*
X174700000Y-115160000D03*
X174700000Y-117700000D03*
%TD*%
D31*
%TO.C,C40*%
X173975000Y-94250000D03*
X175525000Y-94250000D03*
%TD*%
D43*
%TO.C,U2*%
X128515099Y-114669937D03*
X128515099Y-115170063D03*
D44*
X128799874Y-115704901D03*
X129300000Y-115704901D03*
X129800126Y-115704901D03*
D43*
X130084901Y-115170063D03*
X130084901Y-114669937D03*
D44*
X129800126Y-114135099D03*
X129300000Y-114135099D03*
X128799874Y-114135099D03*
%TD*%
D30*
%TO.C,C38*%
X132112462Y-82907538D03*
X133072462Y-82907538D03*
%TD*%
D45*
%TO.C,D2*%
X125875000Y-85750000D03*
X124300000Y-85750000D03*
%TD*%
D37*
%TO.C,C21*%
X144650000Y-69970000D03*
X144650000Y-70930000D03*
%TD*%
D46*
%TO.C,TP4*%
X102700000Y-98000000D03*
%TD*%
D47*
%TO.C,D5*%
X118565000Y-82800000D03*
X116635000Y-82800000D03*
%TD*%
D42*
%TO.C,C19*%
X140114924Y-67000000D03*
X139154924Y-67000000D03*
%TD*%
D48*
%TO.C,R8*%
X109125000Y-108120000D03*
X109125000Y-107100000D03*
%TD*%
D34*
%TO.C,J7*%
X117200000Y-88600000D03*
%TD*%
D49*
%TO.C,U5*%
X136595000Y-86312500D03*
X137865000Y-86312500D03*
X139135000Y-86312500D03*
X140405000Y-86312500D03*
X140405000Y-80987500D03*
X139135000Y-80987500D03*
X137865000Y-80987500D03*
X136595000Y-80987500D03*
D50*
X138500000Y-83650000D03*
%TD*%
D48*
%TO.C,R14*%
X135145000Y-86307500D03*
X135145000Y-85287500D03*
%TD*%
D42*
%TO.C,C20*%
X135614924Y-67000000D03*
X134654924Y-67000000D03*
%TD*%
D23*
%TO.C,R7*%
X120610000Y-74800000D03*
X119590000Y-74800000D03*
%TD*%
D37*
%TO.C,C29*%
X109200000Y-70320000D03*
X109200000Y-71280000D03*
%TD*%
D51*
%TO.C,U4*%
X134133600Y-70300000D03*
X134133600Y-70799999D03*
X134133600Y-71300001D03*
X134133600Y-71800000D03*
X134133600Y-72299999D03*
X134133600Y-72800000D03*
X134133600Y-73300000D03*
X134133600Y-73800001D03*
X134133600Y-74300000D03*
X134133600Y-74799999D03*
X134133600Y-75300001D03*
X134133600Y-75800000D03*
D52*
X135600000Y-77266400D03*
X136099999Y-77266400D03*
X136600001Y-77266400D03*
X137100000Y-77266400D03*
X137599999Y-77266400D03*
X138100000Y-77266400D03*
X138600000Y-77266400D03*
X139100001Y-77266400D03*
X139600000Y-77266400D03*
X140099999Y-77266400D03*
X140600001Y-77266400D03*
X141100000Y-77266400D03*
D51*
X142566400Y-75800000D03*
X142566400Y-75300001D03*
X142566400Y-74799999D03*
X142566400Y-74300000D03*
X142566400Y-73800001D03*
X142566400Y-73300000D03*
X142566400Y-72800000D03*
X142566400Y-72299999D03*
X142566400Y-71800000D03*
X142566400Y-71300001D03*
X142566400Y-70799999D03*
X142566400Y-70300000D03*
D52*
X141100000Y-68833600D03*
X140600001Y-68833600D03*
X140099999Y-68833600D03*
X139600000Y-68833600D03*
X139100001Y-68833600D03*
X138600000Y-68833600D03*
X138100000Y-68833600D03*
X137599999Y-68833600D03*
X137100000Y-68833600D03*
X136600001Y-68833600D03*
X136099999Y-68833600D03*
X135600000Y-68833600D03*
%TD*%
D34*
%TO.C,J11*%
X145050000Y-101800000D03*
%TD*%
D42*
%TO.C,C39*%
X133072462Y-80707538D03*
X132112462Y-80707538D03*
%TD*%
D53*
%TO.C,J6*%
X106132500Y-74800000D03*
D54*
X106132500Y-76820000D03*
D55*
X106132500Y-78050000D03*
D56*
X106132500Y-75800000D03*
D57*
X106132500Y-73780000D03*
D58*
X106132500Y-72550000D03*
D59*
X106077500Y-70175000D03*
D60*
X102497500Y-70175000D03*
D59*
X106077500Y-80425000D03*
D60*
X102497500Y-80425000D03*
%TD*%
D61*
%TO.C,X2*%
X131392462Y-71857538D03*
X131392462Y-70657538D03*
%TD*%
D62*
%TO.C,C4*%
X110100000Y-78475000D03*
X110100000Y-80375000D03*
%TD*%
D25*
%TO.C,FB2*%
X130692462Y-77340000D03*
X130692462Y-78360000D03*
%TD*%
D42*
%TO.C,C25*%
X129942462Y-71757538D03*
X128982462Y-71757538D03*
%TD*%
D38*
%TO.C,C37*%
X131792462Y-75887538D03*
X131792462Y-74927538D03*
%TD*%
D23*
%TO.C,R21*%
X118560000Y-91450000D03*
X117540000Y-91450000D03*
%TD*%
%TO.C,R23*%
X127760000Y-91450000D03*
X126740000Y-91450000D03*
%TD*%
D48*
%TO.C,R2*%
X111800000Y-79685000D03*
X111800000Y-78665000D03*
%TD*%
D63*
%TO.C,S1*%
X147250000Y-106100000D03*
X142750000Y-106100000D03*
X147250000Y-115200000D03*
X142750000Y-115200000D03*
%TD*%
D25*
%TO.C,R5*%
X115500000Y-72390000D03*
X115500000Y-73410000D03*
%TD*%
D29*
%TO.C,C14*%
X144900000Y-68625000D03*
X144900000Y-67075000D03*
%TD*%
D34*
%TO.C,J1*%
X135200000Y-107040000D03*
D35*
X135200000Y-109580000D03*
X135200000Y-112120000D03*
X135200000Y-114660000D03*
X135200000Y-117200000D03*
%TD*%
D38*
%TO.C,C36*%
X130692462Y-75887538D03*
X130692462Y-74927538D03*
%TD*%
D31*
%TO.C,C8*%
X111092500Y-111360000D03*
X112642500Y-111360000D03*
%TD*%
D24*
%TO.C,R18*%
X144390000Y-117700000D03*
X145410000Y-117700000D03*
%TD*%
D64*
%TO.C,U3*%
X110700000Y-108210000D03*
X110700000Y-108710000D03*
X110700000Y-109210000D03*
X110700000Y-109710000D03*
D65*
X111362500Y-109872500D03*
X111862500Y-109872500D03*
X112362500Y-109872500D03*
D64*
X113025000Y-109710000D03*
X113025000Y-109210000D03*
X113025000Y-108710000D03*
X113025000Y-108210000D03*
D65*
X112362500Y-108047500D03*
X111862500Y-108047500D03*
X111362500Y-108047500D03*
%TD*%
D66*
%TO.C,L1*%
X117100000Y-77600000D03*
X114902900Y-77600000D03*
%TD*%
D48*
%TO.C,R6*%
X122600000Y-74020000D03*
X122600000Y-73000000D03*
%TD*%
D31*
%TO.C,C5*%
X128524874Y-110904901D03*
X130074874Y-110904901D03*
%TD*%
D37*
%TO.C,C32*%
X117800000Y-72420000D03*
X117800000Y-73380000D03*
%TD*%
D32*
%TO.C,C1*%
X126599874Y-114154901D03*
X126599874Y-115704901D03*
%TD*%
D42*
%TO.C,C15*%
X141130000Y-79000000D03*
X140170000Y-79000000D03*
%TD*%
D45*
%TO.C,D1*%
X114475000Y-86200000D03*
X112900000Y-86200000D03*
%TD*%
D34*
%TO.C,J8*%
X123950000Y-88600000D03*
%TD*%
D23*
%TO.C,R17*%
X109210000Y-74800000D03*
X108190000Y-74800000D03*
%TD*%
D24*
%TO.C,R26*%
X110340000Y-86200000D03*
X111360000Y-86200000D03*
%TD*%
D42*
%TO.C,C23*%
X133072462Y-79607538D03*
X132112462Y-79607538D03*
%TD*%
D48*
%TO.C,R4*%
X109200000Y-73410000D03*
X109200000Y-72390000D03*
%TD*%
D46*
%TO.C,TP1*%
X102800000Y-86200000D03*
%TD*%
D25*
%TO.C,R20*%
X125300000Y-77290000D03*
X125300000Y-78310000D03*
%TD*%
D30*
%TO.C,C18*%
X128962462Y-73957538D03*
X129922462Y-73957538D03*
%TD*%
D45*
%TO.C,D3*%
X121475000Y-85750000D03*
X119900000Y-85750000D03*
%TD*%
D37*
%TO.C,C22*%
X135145000Y-80957500D03*
X135145000Y-81917500D03*
%TD*%
D42*
%TO.C,C24*%
X129942462Y-70707538D03*
X128982462Y-70707538D03*
%TD*%
D25*
%TO.C,R9*%
X108025000Y-107100000D03*
X108025000Y-108120000D03*
%TD*%
D41*
%TO.C,R27*%
X130192462Y-67415038D03*
X130192462Y-69240038D03*
%TD*%
D25*
%TO.C,R25*%
X122900000Y-85040000D03*
X122900000Y-86060000D03*
%TD*%
D24*
%TO.C,R10*%
X112357500Y-106810000D03*
X113377500Y-106810000D03*
%TD*%
D48*
%TO.C,R3*%
X111800000Y-81735000D03*
X111800000Y-80715000D03*
%TD*%
D23*
%TO.C,R28*%
X137694924Y-67000000D03*
X136674924Y-67000000D03*
%TD*%
D38*
%TO.C,C17*%
X127942462Y-72487538D03*
X127942462Y-71527538D03*
%TD*%
D67*
%TO.C,IC1*%
X155800000Y-70000000D03*
X155800000Y-70725000D03*
X155800000Y-71450000D03*
X155800000Y-72175000D03*
X155800000Y-73025000D03*
X155800000Y-73750000D03*
X155800000Y-74475000D03*
X155800000Y-75200000D03*
X156500000Y-70000000D03*
X156500000Y-70725000D03*
X156500000Y-71450000D03*
X156500000Y-73025000D03*
X156500000Y-73750000D03*
X156500000Y-74475000D03*
X156500000Y-75200000D03*
X157200000Y-70000000D03*
X157200000Y-70725000D03*
X157200000Y-74475000D03*
X157200000Y-75200000D03*
X157900000Y-70000000D03*
X157900000Y-70725000D03*
X157900000Y-74475000D03*
X157900000Y-75200000D03*
X158600000Y-70000000D03*
X158600000Y-70725000D03*
X158600000Y-74475000D03*
X158600000Y-75200000D03*
X159300000Y-70000000D03*
X159300000Y-70725000D03*
X159300000Y-71450000D03*
X159300000Y-72175000D03*
X159300000Y-73025000D03*
X159300000Y-73750000D03*
X159300000Y-74475000D03*
X159300000Y-75200000D03*
X159900000Y-70000000D03*
X159900000Y-70725000D03*
X159900000Y-71450000D03*
X159900000Y-72175000D03*
X159900000Y-73025000D03*
X159900000Y-73750000D03*
X159900000Y-74475000D03*
X159900000Y-75200000D03*
D68*
X160550000Y-69950000D03*
X160550000Y-75250000D03*
X161300000Y-69950000D03*
X161300000Y-75250000D03*
X162050000Y-69950000D03*
X162050000Y-75250000D03*
X162800000Y-69950000D03*
X162800000Y-75250000D03*
%TD*%
D42*
%TO.C,C31*%
X119780000Y-70000000D03*
X118820000Y-70000000D03*
%TD*%
D24*
%TO.C,R29*%
X132082462Y-81807538D03*
X133102462Y-81807538D03*
%TD*%
D69*
%TO.C,U6*%
X113595400Y-72539800D03*
X113595400Y-71600000D03*
X113595400Y-70660200D03*
X111004600Y-70660200D03*
X111004600Y-72539800D03*
%TD*%
D34*
%TO.C,J2*%
X105200000Y-104510000D03*
D35*
X105200000Y-107050000D03*
X105200000Y-109590000D03*
X105200000Y-112130000D03*
X105200000Y-114670000D03*
X105200000Y-117210000D03*
%TD*%
D37*
%TO.C,C30*%
X115500000Y-70320000D03*
X115500000Y-71280000D03*
%TD*%
D34*
%TO.C,J3*%
X118150000Y-104480000D03*
D35*
X118150000Y-107020000D03*
X118150000Y-109560000D03*
X118150000Y-112100000D03*
X118150000Y-114640000D03*
X118150000Y-117180000D03*
%TD*%
D32*
%TO.C,C7*%
X114567500Y-109835000D03*
X114567500Y-111385000D03*
%TD*%
D31*
%TO.C,C6*%
X128524874Y-112554901D03*
X130074874Y-112554901D03*
%TD*%
D70*
%TO.C,X1*%
X127497056Y-73962132D03*
X126542462Y-73007538D03*
X125800000Y-73750000D03*
X126754594Y-74704594D03*
%TD*%
D46*
%TO.C,TP2*%
X102800000Y-90100000D03*
%TD*%
%TO.C,TP3*%
X102800000Y-94000000D03*
%TD*%
D48*
%TO.C,R30*%
X171900000Y-112660000D03*
X171900000Y-111640000D03*
%TD*%
M02*
