%TF.GenerationSoftware,KiCad,Pcbnew,8.0.7*%
%TF.CreationDate,2025-02-08T18:07:02-05:00*%
%TF.ProjectId,Fallyx_EVK-RevA,46616c6c-7978-45f4-9556-4b2d52657641,rev?*%
%TF.SameCoordinates,Original*%
%TF.FileFunction,Soldermask,Bot*%
%TF.FilePolarity,Negative*%
%FSLAX46Y46*%
G04 Gerber Fmt 4.6, Leading zero omitted, Abs format (unit mm)*
G04 Created by KiCad (PCBNEW 8.0.7) date 2025-02-08 18:07:02*
%MOMM*%
%LPD*%
G01*
G04 APERTURE LIST*
G04 Aperture macros list*
%AMRoundRect*
0 Rectangle with rounded corners*
0 $1 Rounding radius*
0 $2 $3 $4 $5 $6 $7 $8 $9 X,Y pos of 4 corners*
0 Add a 4 corners polygon primitive as box body*
4,1,4,$2,$3,$4,$5,$6,$7,$8,$9,$2,$3,0*
0 Add four circle primitives for the rounded corners*
1,1,$1+$1,$2,$3*
1,1,$1+$1,$4,$5*
1,1,$1+$1,$6,$7*
1,1,$1+$1,$8,$9*
0 Add four rect primitives between the rounded corners*
20,1,$1+$1,$2,$3,$4,$5,0*
20,1,$1+$1,$4,$5,$6,$7,0*
20,1,$1+$1,$6,$7,$8,$9,0*
20,1,$1+$1,$8,$9,$2,$3,0*%
G04 Aperture macros list end*
%ADD10R,1.700000X1.700000*%
%ADD11O,1.700000X1.700000*%
%ADD12RoundRect,0.102000X0.762000X-0.762000X0.762000X0.762000X-0.762000X0.762000X-0.762000X-0.762000X0*%
%ADD13C,1.728000*%
G04 APERTURE END LIST*
D10*
%TO.C,J4*%
X151800000Y-68270000D03*
D11*
X151800000Y-70810000D03*
X151800000Y-73350000D03*
X151800000Y-75890000D03*
X151800000Y-78430000D03*
X151800000Y-80970000D03*
X151800000Y-83510000D03*
X151800000Y-86050000D03*
%TD*%
D12*
%TO.C,J5*%
X116970000Y-67150000D03*
D13*
X114430000Y-67150000D03*
%TD*%
D10*
%TO.C,J12*%
X113975000Y-96625000D03*
D11*
X113975000Y-94085000D03*
X116515000Y-96625000D03*
X116515000Y-94085000D03*
X119055000Y-96625000D03*
X119055000Y-94085000D03*
X121595000Y-96625000D03*
X121595000Y-94085000D03*
X124135000Y-96625000D03*
X124135000Y-94085000D03*
X126675000Y-96625000D03*
X126675000Y-94085000D03*
X129215000Y-96625000D03*
X129215000Y-94085000D03*
X131755000Y-96625000D03*
X131755000Y-94085000D03*
X134295000Y-96625000D03*
X134295000Y-94085000D03*
X136835000Y-96625000D03*
X136835000Y-94085000D03*
X139375000Y-96625000D03*
X139375000Y-94085000D03*
X141915000Y-96625000D03*
X141915000Y-94085000D03*
X144455000Y-96625000D03*
X144455000Y-94085000D03*
X146995000Y-96625000D03*
X146995000Y-94085000D03*
X149535000Y-96625000D03*
X149535000Y-94085000D03*
X152075000Y-96625000D03*
X152075000Y-94085000D03*
X154615000Y-96625000D03*
X154615000Y-94085000D03*
X157155000Y-96625000D03*
X157155000Y-94085000D03*
X159695000Y-96625000D03*
X159695000Y-94085000D03*
X162235000Y-96625000D03*
X162235000Y-94085000D03*
%TD*%
D10*
%TO.C,J13*%
X174700000Y-97380000D03*
D11*
X174700000Y-99920000D03*
X174700000Y-102460000D03*
X174700000Y-105000000D03*
X174700000Y-107540000D03*
X174700000Y-110080000D03*
X174700000Y-112620000D03*
X174700000Y-115160000D03*
X174700000Y-117700000D03*
%TD*%
D10*
%TO.C,J7*%
X117200000Y-88600000D03*
%TD*%
%TO.C,J11*%
X145050000Y-101800000D03*
%TD*%
%TO.C,J1*%
X135200000Y-107040000D03*
D11*
X135200000Y-109580000D03*
X135200000Y-112120000D03*
X135200000Y-114660000D03*
X135200000Y-117200000D03*
%TD*%
D10*
%TO.C,J8*%
X123950000Y-88600000D03*
%TD*%
%TO.C,J2*%
X105200000Y-104510000D03*
D11*
X105200000Y-107050000D03*
X105200000Y-109590000D03*
X105200000Y-112130000D03*
X105200000Y-114670000D03*
X105200000Y-117210000D03*
%TD*%
D10*
%TO.C,J3*%
X118150000Y-104480000D03*
D11*
X118150000Y-107020000D03*
X118150000Y-109560000D03*
X118150000Y-112100000D03*
X118150000Y-114640000D03*
X118150000Y-117180000D03*
%TD*%
M02*
